<svg width="16" height="16" viewBox="0 0 16 16" fill="none" xmlns="http://www.w3.org/2000/svg">
<path d="M6.29999 11.7001C6.23332 11.7001 6.17221 11.6889 6.11666 11.6667C6.0611 11.6445 6.00555 11.6056 5.94999 11.5501L2.93333 8.53339C2.83333 8.43339 2.78333 8.31117 2.78333 8.16672C2.78333 8.02228 2.83333 7.90006 2.93333 7.80006C3.03333 7.70006 3.14999 7.65006 3.28333 7.65006C3.41666 7.65006 3.53332 7.70006 3.63332 7.80006L6.29999 10.4667L12.35 4.41672C12.45 4.31672 12.5694 4.26672 12.7083 4.26672C12.8472 4.26672 12.9667 4.31672 13.0667 4.41672C13.1667 4.51672 13.2167 4.63617 13.2167 4.77506C13.2167 4.91395 13.1667 5.03339 13.0667 5.13339L6.64999 11.5501C6.59444 11.6056 6.53888 11.6445 6.48333 11.6667C6.42777 11.6889 6.36666 11.7001 6.29999 11.7001Z" fill="#E08161"/>
</svg>
