<svg width="35" height="35" fill="none" xmlns="http://www.w3.org/2000/svg"><g clip-path="url(#a)" fill="#E08161"><path d="M11.082 28.746a.559.559 0 0 0-.44-.378l-2.924-.491-1.37-2.63a.558.558 0 0 0-.99 0l-1.371 2.63-2.925.49a.558.558 0 0 0-.306.943l2.078 2.116-.437 2.933a.558.558 0 0 0 .8.582l2.655-1.321 2.655 1.321a.557.557 0 0 0 .801-.582l-.437-2.933 2.078-2.116a.56.56 0 0 0 .133-.564ZM7.88 30.842a.559.559 0 0 0-.154.474l.32 2.148-1.945-.968a.559.559 0 0 0-.498 0l-1.944.968.32-2.148a.558.558 0 0 0-.154-.474l-1.521-1.55 2.142-.36a.558.558 0 0 0 .403-.292l1.003-1.926 1.004 1.926c.081.155.23.264.403.293l2.142.36-1.521 1.549ZM22.73 28.746a.559.559 0 0 0-.44-.378l-2.924-.491-1.37-2.63a.558.558 0 0 0-.991 0l-1.37 2.63-2.925.49a.558.558 0 0 0-.307.943l2.078 2.116-.437 2.933a.558.558 0 0 0 .801.582L17.5 33.62l2.655 1.322a.558.558 0 0 0 .801-.582l-.437-2.933 2.078-2.116a.558.558 0 0 0 .132-.564Zm-3.203 2.096a.559.559 0 0 0-.154.474l.32 2.148-1.944-.968a.558.558 0 0 0-.498 0l-1.944.968.32-2.148a.558.558 0 0 0-.154-.474l-1.522-1.55 2.142-.36a.558.558 0 0 0 .403-.292l1.004-1.926 1.004 1.926c.08.155.23.264.403.293l2.142.359-1.522 1.55ZM34.377 28.746a.558.558 0 0 0-.44-.378l-2.924-.491-1.37-2.63a.558.558 0 0 0-.99 0l-1.371 2.63-2.925.49a.559.559 0 0 0-.306.943l2.077 2.116-.437 2.933a.558.558 0 0 0 .802.582l2.654-1.322 2.655 1.322a.557.557 0 0 0 .801-.582l-.437-2.933 2.078-2.116a.558.558 0 0 0 .133-.564Zm-3.202 2.096a.558.558 0 0 0-.154.474l.32 2.148-1.945-.968a.559.559 0 0 0-.498 0l-1.944.968.32-2.148a.558.558 0 0 0-.154-.474l-1.521-1.55 2.142-.36a.558.558 0 0 0 .403-.292l1.003-1.926 1.004 1.926c.081.155.23.264.403.293l2.142.36-1.521 1.549ZM17.499.41a6.3 6.3 0 0 0-6.293 6.293 6.3 6.3 0 0 0 6.293 6.292 6.3 6.3 0 0 0 6.292-6.292A6.3 6.3 0 0 0 17.5.41Zm0 11.468a5.181 5.181 0 0 1-5.176-5.175A5.181 5.181 0 0 1 17.5 1.527a5.181 5.181 0 0 1 5.175 5.176 5.182 5.182 0 0 1-5.175 5.175ZM17.499 14.113a9.476 9.476 0 0 0-5.87 2.012.558.558 0 1 0 .686.882 8.369 8.369 0 0 1 5.184-1.777c4.473 0 8.145 3.492 8.434 7.893H9.065a8.355 8.355 0 0 1 1.766-4.635.558.558 0 1 0-.88-.687 9.475 9.475 0 0 0-2.021 5.881c0 .309.25.559.558.559H26.51c.309 0 .559-.25.559-.559 0-5.276-4.293-9.569-9.57-9.569Z"/></g><defs><clipPath id="a"><path fill="#fff" d="M0 0h35v35H0z"/></clipPath></defs></svg>