<svg width="35" height="35" fill="none" xmlns="http://www.w3.org/2000/svg"><path d="M30.745 5.42 25.496.172A.58.58 0 0 0 25.083 0H7a2.92 2.92 0 0 0-2.917 2.917v29.166A2.92 2.92 0 0 0 7 35h21a2.92 2.92 0 0 0 2.917-2.917V5.833a.58.58 0 0 0-.172-.413Zm-5.078-3.428 3.258 3.258h-3.258V1.992Zm4.083 30.091c0 .965-.785 1.75-1.75 1.75H7c-.965 0-1.75-.785-1.75-1.75V2.917c0-.965.785-1.75 1.75-1.75h17.5v4.666c0 .323.261.584.583.584h4.667v25.666Z" fill="#E08161"/><path d="M9.333 8.167A2.336 2.336 0 0 0 7 10.5a2.336 2.336 0 0 0 2.333 2.333 2.336 2.336 0 0 0 2.334-2.333 2.336 2.336 0 0 0-2.334-2.333Zm0 3.5a1.168 1.168 0 0 1 0-2.334 1.168 1.168 0 0 1 0 2.334ZM9.333 14.583A2.336 2.336 0 0 0 7 16.917a2.336 2.336 0 0 0 2.333 2.333 2.336 2.336 0 0 0 2.334-2.333 2.336 2.336 0 0 0-2.334-2.334Zm0 3.5a1.168 1.168 0 0 1 0-2.333 1.168 1.168 0 0 1 0 2.333ZM9.333 21A2.336 2.336 0 0 0 7 23.333a2.336 2.336 0 0 0 2.333 2.334 2.336 2.336 0 0 0 2.334-2.334A2.336 2.336 0 0 0 9.333 21Zm0 3.5a1.168 1.168 0 0 1 0-2.333 1.168 1.168 0 0 1 0 2.333ZM9.333 27.417A2.336 2.336 0 0 0 7 29.75a2.336 2.336 0 0 0 2.333 2.333 2.336 2.336 0 0 0 2.334-2.333 2.336 2.336 0 0 0-2.334-2.333Zm0 3.5a1.168 1.168 0 0 1 0-2.334 1.168 1.168 0 0 1 0 2.334ZM28 11.083H12.833v1.167H28v-1.167ZM21.583 2.917h-8.166v1.166h8.166V2.917ZM23.333 5.25H11.667v1.167h11.666V5.25ZM28 17.5H12.833v1.167H28V17.5ZM28 23.917H12.833v1.166H28v-1.166ZM28 30.333H12.833V31.5H28v-1.167ZM18.667 8.75H17.5v1.167h1.167V8.75ZM16.333 8.75h-1.166v1.167h1.166V8.75ZM14 8.75h-1.167v1.167H14V8.75Z" fill="#E08161"/></svg>