<svg width="35" height="36" fill="none" xmlns="http://www.w3.org/2000/svg"><g clip-path="url(#a)"><path d="m34.897 19.826-.002-.004-6.325-8.8c-.094-1.41-1.222-2.778-2.596-3.104l-6.799-1.616V4.51c0-.43-.162-.82-.428-1.117.266-.297.428-.688.428-1.117C19.175 1.352 18.424.6 17.5.6s-1.676.752-1.676 1.676c0 .429.163.82.428 1.117a1.669 1.669 0 0 0-.428 1.117v1.792L9.026 7.918c-1.374.326-2.502 1.694-2.596 3.104l-6.325 8.8-.002.004a.554.554 0 0 0-.103.322 3.541 3.541 0 0 0 3.537 3.537h6.888a3.541 3.541 0 0 0 3.538-3.537.555.555 0 0 0-.103-.322l-.002-.004L8.07 11.77h6.078a.559.559 0 0 0 0-1.117H7.624c.228-.772.896-1.467 1.66-1.648l6.54-1.554v16.607H14.895a.559.559 0 0 0-.015 1.116l-1.523 4.873a2.8 2.8 0 0 0-2.316 2.202H8.564c-.924 0-1.676.752-1.676 1.676 0 .924.752 1.675 1.676 1.675h17.872c.924 0 1.676-.752 1.676-1.675 0-.924-.752-1.676-1.676-1.676H23.96a2.8 2.8 0 0 0-2.316-2.202l-1.523-4.873a.558.558 0 0 0-.015-1.116h-.931V7.45l6.541 1.554c.764.181 1.432.876 1.66 1.648h-6.525a.559.559 0 0 0 0 1.117h6.078l-5.787 8.052c0 .001 0 .003-.002.004a.555.555 0 0 0-.103.322 3.541 3.541 0 0 0 3.538 3.537h6.888A3.541 3.541 0 0 0 35 20.148a.556.556 0 0 0-.103-.322Zm-24.471 2.742H3.536a2.424 2.424 0 0 1-2.355-1.862h11.599a2.425 2.425 0 0 1-2.356 1.862Zm1.889-2.979H1.648l5.333-7.42 5.334 7.42ZM17.5 1.718a.56.56 0 1 1-.001 1.118.56.56 0 0 1 .001-1.118Zm-.558 2.793a.56.56 0 0 1 1.116 0v19.548h-1.116V4.51Zm5.861 27.739h-9.026a.559.559 0 0 0 0 1.117h12.66a.56.56 0 0 1 0 1.117H8.563a.56.56 0 0 1 0-1.117h2.979c.308 0 .558-.25.558-.559 0-.923.75-1.674 1.674-1.675h7.446c.731 0 1.352.467 1.582 1.117Zm-2.34-2.234h-5.927l1.513-4.84h2.902l1.513 4.84Zm7.555-17.846 5.334 7.42H22.685l5.334-7.42Zm3.445 10.4h-6.889a2.424 2.424 0 0 1-2.355-1.863h11.599a2.425 2.425 0 0 1-2.355 1.862Z" fill="#E08161"/></g><defs><clipPath id="a"><path fill="#fff" transform="translate(0 .6)" d="M0 0h35v35H0z"/></clipPath></defs></svg>