<svg width="20" height="20" fill="none" xmlns="http://www.w3.org/2000/svg"><path d="M18.044 2.826H1.957C.83 2.826 0 3.754 0 4.783v10.434c0 1.08.878 1.957 1.957 1.957h16.087A1.959 1.959 0 0 0 20 15.217V4.784a1.959 1.959 0 0 0-1.956-1.957ZM1.957 4.131h16.087c.146 0 .296.053.41.148l-7.993 7.995a.652.652 0 0 1-.922 0L1.545 4.28a.657.657 0 0 1 .412-.15Zm16.739 11.087c0 .36-.293.652-.652.652H1.957a.653.653 0 0 1-.653-.652V5.882l7.313 7.313a1.958 1.958 0 0 0 2.766 0l7.313-7.313v9.335Z" fill="#F6F9FA"/></svg>