<svg width="20" height="20" fill="none" xmlns="http://www.w3.org/2000/svg"><g clip-path="url(#a)"><path d="m19.427 13.073-2.708-2.708a1.957 1.957 0 0 0-2.764 0l-2.094 2.094a.652.652 0 0 1-.922 0L7.54 9.06a.651.651 0 0 1 0-.921l2.095-2.094c.763-.764.764-2 0-2.764L6.926.572a1.957 1.957 0 0 0-2.764 0L1.147 3.588C.385 4.35-.001 5.24 0 6.236c.003 2.847 3.215 5.87 5.554 8.21 2.34 2.34 5.363 5.55 8.21 5.554h.004c.993 0 1.883-.386 2.643-1.147l3.016-3.016c.764-.764.764-2 0-2.764ZM5.083 1.493a.652.652 0 0 1 .922 0l2.708 2.71a.651.651 0 0 1 0 .92L7.08 6.757l-3.63-3.63 1.633-1.633ZM15.49 17.932c-.515.515-1.078.765-1.722.765h-.003c-2.34-.002-5.45-3.333-7.29-5.172-2.035-2.035-5.17-5.003-5.172-7.29 0-.645.25-1.21.765-1.725l.46-.46 3.709 3.708c-.125.26-.19.546-.19.843 0 .522.203 1.012.572 1.382l3.399 3.398c.6.601 1.498.728 2.224.382l3.709 3.709-.46.46Zm3.016-3.015-1.634 1.633-3.63-3.63 1.634-1.633a.652.652 0 0 1 .921 0l2.709 2.709a.651.651 0 0 1 0 .92Z" fill="#F6F9FA"/></g><defs><clipPath id="a"><path fill="#fff" d="M0 0h20v20H0z"/></clipPath></defs></svg>