<svg width="35" height="35" fill="none" xmlns="http://www.w3.org/2000/svg"><g clip-path="url(#a)" fill="#E08161"><path d="M28.456 14.652c0-1.198-.91-2.188-2.075-2.316l-.046-.47h.467a.566.566 0 0 0 .556-.68l-.454-2.266a.567.567 0 0 0-.556-.456h-.117a7.952 7.952 0 0 0-2.327-5.097 7.98 7.98 0 0 0-3.548-2.063V.567A.567.567 0 0 0 19.789 0H16.69a.567.567 0 0 0-.567.567v.738a8.043 8.043 0 0 0-4.081 2.65 8.024 8.024 0 0 0-1.791 4.51h-.12c-.27 0-.502.19-.556.455l-.454 2.267a.567.567 0 0 0 .556.678h.466l-.045.471a2.333 2.333 0 0 0-2.075 2.316c0 1.049.688 1.937 1.646 2.229a6.311 6.311 0 0 0 2.585 5.358l3.102 2.254a4.896 4.896 0 0 0 5.768 0l3.102-2.254a6.312 6.312 0 0 0 2.584-5.358 2.325 2.325 0 0 0 1.646-2.23ZM9.774 15.699a1.198 1.198 0 0 1 .211-2.185L9.774 15.7ZM20.356 2.486c1.03.332 1.97.906 2.747 1.682a6.827 6.827 0 0 1 1.991 4.296h-4.738V2.486Zm-3.099-1.352h1.965v7.33h-1.965v-7.33Zm-1.133 1.353v5.977h-4.738a6.917 6.917 0 0 1 4.738-5.977Zm7.436 18.835-3.102 2.254a3.774 3.774 0 0 1-1.652.68v-1.47a.567.567 0 1 0-1.133 0v1.47a3.773 3.773 0 0 1-1.65-.68l-3.103-2.254a5.172 5.172 0 0 1-2.1-4.665l.463-4.792h3.263l.36 1.459c.063.253.29.43.551.43h5.565c.261 0 .488-.177.55-.43l.361-1.459h3.263l.463 4.792a5.172 5.172 0 0 1-2.1 4.665Zm-7.846-9.457h5.051l-.186.756H15.9l-.187-.756Zm-5.345-1.133.227-1.134h15.288l.227 1.133H10.369Zm16.337 4.967-.211-2.185c.48.156.828.607.828 1.138 0 .45-.248.843-.617 1.047ZM21.83 33.866H10.569V31.35a4.55 4.55 0 0 0 2.754-4.19 4.567 4.567 0 0 0-1.06-2.923l.051-.034a.567.567 0 1 0-.588-.969 4.723 4.723 0 0 0-2.29 4.067v7.133c0 .313.253.567.566.567H21.83a.567.567 0 1 0 0-1.134ZM10.569 27.3c0-.868.302-1.68.838-2.32a3.432 3.432 0 0 1-.838 5.095V27.3Z"/><path d="M21.659 24.991a.567.567 0 0 0-.567.567 2.771 2.771 0 0 1-2.768 2.768 2.771 2.771 0 0 1-2.769-2.768.567.567 0 1 0-1.133 0 3.906 3.906 0 0 0 3.901 3.902 3.906 3.906 0 0 0 3.902-3.902.567.567 0 0 0-.567-.567ZM27.044 30.963V27.3a4.724 4.724 0 0 0-2.291-4.067.567.567 0 0 0-.588.97l.052.033a4.567 4.567 0 0 0-1.061 2.923 4.55 4.55 0 0 0 2.754 4.19v2.517h-2.19a.567.567 0 0 0 0 1.134h2.757a.567.567 0 0 0 .567-.567v-3.47Zm-1.134-.888a3.432 3.432 0 0 1-.839-5.095c.537.64.84 1.452.84 2.32v2.775ZM8.415 33.866H1.411l.225-1.665h6.779a.567.567 0 0 0 .104-1.123l-1.361-9.924a.567.567 0 0 0-.562-.49H4.472a.567.567 0 0 0-.562.49l-1.36 9.914H1.14a.567.567 0 0 0-.56.49l-.379 2.8A.567.567 0 0 0 .763 35h7.652a.567.567 0 1 0 0-1.134ZM4.966 21.798h1.136l.373 2.72H4.593l.373-2.72Zm-.529 3.853H6.63l.351 2.555H4.087l.35-2.555Zm-.506 3.689h3.206l.237 1.728h-3.68l.237-1.728ZM34.728 21.949l-1.969-3.41a.567.567 0 0 0-.49-.283H28.33a.566.566 0 0 0-.49.283l-1.969 3.41a.567.567 0 0 0 0 .567l1.969 3.41a.567.567 0 0 0 .49.283h1.402v4.874a.567.567 0 0 0 1.134 0V26.21h1.402c.202 0 .39-.108.49-.284l1.97-3.41a.567.567 0 0 0-.001-.566Zm-2.787 3.126H28.66l-1.642-2.843 1.642-2.842h3.282l1.642 2.842-1.642 2.843Z"/><path d="M31.51 21.666h-2.42a.567.567 0 1 0 0 1.133h2.42a.567.567 0 1 0 0-1.133Z"/></g><defs><clipPath id="a"><path fill="#fff" d="M0 0h35v35H0z"/></clipPath></defs></svg>