<svg width="32" height="32" viewBox="0 0 32 32" fill="none" xmlns="http://www.w3.org/2000/svg">
<path fill-rule="evenodd" clip-rule="evenodd" d="M3.91922 29.424L11.6281 24.9346C11.7975 25.2157 12.2746 25.9453 12.8274 26.6145C13.5184 27.4509 17.4065 30.6194 21.4463 29.8926C25.4862 29.1657 26.6686 27.9674 28.3042 26.0422C29.6128 24.502 29.9793 22.1263 29.999 21.1309V3.90242C30.043 2.25616 28.5918 2.24763 27.9546 2.59469C26.2625 3.56074 24.3133 4.69971 23.5915 5.12144L23.5905 5.12204L23.5888 5.12304L23.5866 5.12436L23.5851 5.12518L23.5837 5.12604L23.5804 5.12793L23.5782 5.12923L23.5774 5.12968L23.5751 5.13107L23.5737 5.13185L23.573 5.1323C23.4183 5.22265 23.3242 5.27765 23.3065 5.28772C23.208 5.3438 21.2614 6.4744 21.2614 6.4744V4.17252C21.2614 2.43368 20.4016 2.00309 19.2893 2.00308C18.9182 2.00308 18.4425 2.00251 17.9019 2.00186C16.2262 1.99983 13.9271 1.99706 12.1874 2.00825C9.31116 2.02675 7.51143 2.4657 5.17295 4.31507C3.02818 6.01125 2.12737 8.67668 2 10.0179V28.257C2 29.3402 3.14842 29.7733 3.91922 29.424ZM27.9731 4.81848L21.2822 8.69069V27.8934C22.1373 27.8216 24.2402 27.3312 25.8109 25.9438C27.3815 24.5565 28.0127 22.3374 28.132 21.4013V5.03842C28.128 4.93677 28.0906 4.75048 27.9731 4.81848ZM12.8773 10.0397C12.7414 11.0428 12.8773 15.0553 12.8773 15.0553C13.8996 14.843 15.1119 14.4669 15.9121 13.9938C18.2299 12.6235 19.0214 10.4945 19.3184 9.57134C19.6155 8.64818 19.4261 3.85639 19.4261 3.85639C17.6469 4.01214 16.2592 4.90113 15.0496 5.91616C13.5451 7.17875 13.0281 8.92687 12.8773 10.0397ZM12.8778 16.6987C12.8778 16.6987 12.7419 20.7112 12.8778 21.7143C13.0286 22.8272 13.5455 24.5753 15.0501 25.8379C16.2597 26.8529 17.6473 27.7419 19.4266 27.8976C19.4266 27.8976 19.616 23.1058 19.3189 22.1827C19.0219 21.2595 18.2304 19.1305 15.9126 17.7602C15.1124 17.2871 13.9001 16.911 12.8778 16.6987ZM10.9586 3.83742C12.2495 3.7523 14.4146 3.78138 14.4146 3.78138L13.1892 4.9436C11.3447 6.54662 10.7568 9.02658 10.6934 10.0662V23.3397L4.29312 27.0363C4.13609 27.1137 4.06399 27.1557 4.03088 27.1352C4.00277 27.1178 4.00277 27.0553 4.00277 26.9311V10.0662C4.05992 9.48027 4.4777 7.94761 5.69171 6.50434C6.90572 5.06106 8.77193 3.98161 10.9586 3.83742Z" fill="#E08161"/>
</svg>
