<svg width="118" height="140" viewBox="0 0 118 140" fill="none" xmlns="http://www.w3.org/2000/svg">
<path d="M37.6382 86.9093C34.8346 87.4437 33.0216 88.9283 32.447 91.1651C32.239 91.9569 32.239 93.6494 32.4371 94.4214C32.9126 96.2425 34.2798 97.4797 36.697 98.2616C37.1329 98.41 38.2623 98.7268 39.1935 98.9643C41.482 99.568 42.1754 99.9342 42.4033 100.696C42.651 101.518 42.1259 102.369 41.0857 102.834C40.5706 103.062 40.3229 103.121 39.669 103.121C38.718 103.121 38.2127 102.993 37.5787 102.557C37.014 102.181 36.6673 101.587 36.5781 100.825L36.5187 100.31H31.9616L32.021 101.231C32.1201 102.953 32.764 104.348 33.9529 105.477C34.785 106.259 35.4389 106.645 36.598 107.031C39.1935 107.892 42.4429 107.526 44.5332 106.13C45.732 105.328 46.5542 104.131 46.901 102.676C47.1189 101.745 47.0991 100.221 46.8514 99.3305C46.5641 98.3012 46.3165 97.8756 45.5735 97.1333C44.5927 96.1534 43.0968 95.4507 40.7092 94.8668C37.6084 94.0948 36.8456 93.6593 36.8456 92.6399C36.8456 91.8184 37.5193 91.274 38.7279 91.1058C40.5408 90.8484 41.9971 91.7887 41.9971 93.204V93.4811H46.5839L46.5146 92.7586C46.3363 90.8979 45.8707 89.829 44.771 88.7205C44.2162 88.1563 43.8398 87.8792 43.285 87.612C42.0566 87.028 41.5513 86.9291 39.6195 86.8994C38.6685 86.8796 37.7769 86.8895 37.6382 86.9093Z" fill="#17434E"/>
<path d="M0.240243 107.09L2.48907 107.12L4.74781 107.14L4.76762 103.804L4.79734 100.459L7.0858 100.399L8.95817 103.745L10.8404 107.09L13.4063 107.12C15.4372 107.14 15.9523 107.12 15.9127 107.021C15.8929 106.951 14.9319 105.259 13.7827 103.26L11.7023 99.6274L12.1779 99.3206C13.436 98.5189 14.5456 96.9254 14.8923 95.4606C15.1103 94.5402 15.0904 92.9962 14.8527 92.0559C14.3177 89.9676 12.6237 88.1662 10.6126 87.5427C9.48323 87.1864 8.81947 87.1468 4.47042 87.1468H0.190709L0.240243 107.09ZM9.25537 91.7986C10.6126 92.5013 10.8801 94.4016 9.77052 95.4309C9.10677 96.0446 8.82938 96.1039 6.67962 96.1039H4.79734L4.76762 93.7979L4.74781 91.4918L6.75887 91.5215C8.68078 91.5511 8.78975 91.561 9.25537 91.7986Z" fill="#17434E"/>
<path d="M18.0228 107.14H30.2081V102.785H22.5799V99.2216H29.2174V94.9657H22.5799V91.5017H30.01V87.1468H18.0228V107.14Z" fill="#17434E"/>
<path d="M49.7244 107.14H61.9097V102.785H54.2815V99.2216H60.919V94.9657H54.2815V91.5017H61.6125V87.1468H49.7244V107.14Z" fill="#17434E"/>
<path d="M64.6835 107.14L66.9423 107.12L69.1911 107.09L69.2902 95.5101L77.5326 107.09L79.4347 107.12L81.3269 107.14V87.1468H76.8688L76.849 92.8477L76.8193 98.5486L68.7948 87.1567L66.7441 87.1468H64.6835V107.14Z" fill="#17434E"/>
<path d="M84.9924 107.14H88.9352C91.194 107.14 93.2447 107.09 93.7598 107.031C96.1077 106.744 98.307 105.665 99.7732 104.091C102.507 101.132 103.181 96.391 101.388 92.6201C99.9812 89.6508 97.455 87.8 94.1066 87.2953C93.4032 87.1864 92.145 87.1468 89.0838 87.1468H84.9924V107.14ZM93.6409 91.6501C95.4935 92.0361 97.0191 93.5405 97.5244 95.4606C97.7522 96.3019 97.7522 97.8756 97.5343 98.7268C97.0588 100.597 95.8006 101.973 94.0669 102.508C93.4428 102.706 93.1456 102.735 91.4813 102.735H89.599L89.5693 97.1135L89.5495 91.5017H91.2534C92.363 91.5017 93.205 91.5511 93.6409 91.6501Z" fill="#17434E"/>
<path d="M105.004 107.14H117.189V102.785H109.561V99.2216H116.199V94.9657H109.561V91.5017H116.892V87.1468H105.004V107.14Z" fill="#17434E"/>
<path d="M6.28335 110.01C5.3323 110.109 4.81715 110.267 4.04442 110.663C3.14291 111.138 2.41972 111.87 1.99373 112.771C1.67671 113.424 1.63709 113.603 1.59746 114.533C1.55783 115.453 1.57765 115.641 1.82532 116.394C1.97392 116.859 2.34047 117.641 2.62776 118.136C2.92496 118.63 3.16272 119.066 3.16272 119.105C3.16272 119.145 2.93487 119.343 2.66739 119.551C1.42905 120.491 0.44828 121.916 0.141171 123.183C-0.047057 124.005 -0.047057 125.539 0.141171 126.291C0.676135 128.36 2.29093 129.904 4.42088 130.349C5.21342 130.517 7.13533 130.537 7.9774 130.389C8.87891 130.23 9.84977 129.904 10.6324 129.508L11.3358 129.141L12.3265 130.21L17.1312 130.151L14.0106 126.519L14.5357 125.47C14.813 124.886 15.1598 123.985 15.2985 123.47C15.556 122.461 15.774 120.699 15.6551 120.57C15.6155 120.531 14.7635 120.511 13.7629 120.521L11.9401 120.55L11.8212 121.342C11.7122 122.154 11.3952 123.272 11.2862 123.272C11.2169 123.272 8.82938 120.372 8.78975 120.234C8.76994 120.174 9.16621 119.868 9.65164 119.531C11.4547 118.324 12.4255 117.017 12.6831 115.463C13.0001 113.583 12.0193 111.593 10.3352 110.683C9.31481 110.138 7.6901 109.861 6.28335 110.01ZM8.24488 113.702C8.95816 114.246 8.97798 115.166 8.29441 115.909C7.88824 116.344 6.77868 117.136 6.57064 117.136C6.3626 117.136 5.60969 115.503 5.56015 114.939C5.4809 113.949 6.17437 113.335 7.28393 113.395C7.75945 113.424 7.96749 113.494 8.24488 113.702ZM7.16505 124.193C8.01702 125.212 8.69068 126.093 8.67087 126.133C8.56189 126.301 7.34337 126.568 6.63008 126.578C5.69885 126.588 5.08463 126.37 4.60911 125.846C4.08405 125.272 4.0048 124.371 4.40107 123.54C4.61901 123.074 5.44127 122.144 5.54034 122.253C5.57997 122.292 6.31307 123.173 7.16505 124.193Z" fill="#17434E"/>
<path d="M23.9669 130.2H28.524L28.5438 124.41L28.5735 118.611L36.7961 130.191L38.7081 130.2H40.6102V110.208H36.1522V115.919C36.1522 120.362 36.1224 121.6 36.0333 121.511C35.9639 121.441 34.151 118.888 31.9814 115.82L28.0584 110.257L26.0077 110.228L23.9669 110.208V130.2Z" fill="#17434E"/>
<path d="M44.2757 130.2H56.56V125.846H48.8328V122.283H55.4703V118.027H48.8328L48.8526 116.314L48.8823 114.612L52.5775 114.582L56.2628 114.563L56.243 112.405L56.2133 110.257L50.2494 110.228L44.2757 110.208V130.2Z" fill="#17434E"/>
<path d="M59.3339 130.2H63.891V110.208H59.3339V130.2Z" fill="#17434E"/>
<path d="M65.5058 110.326C65.5256 110.396 67.2098 114.77 69.2407 120.056C71.2715 125.331 72.9755 129.775 73.025 129.923L73.1241 130.2H75.2342C77.1462 130.2 77.3444 130.181 77.4137 130.022C77.9685 128.597 84.6952 110.376 84.6952 110.307C84.6952 110.247 83.7441 110.208 82.2284 110.208H79.7715L77.5128 116.839C76.2744 120.481 75.2342 123.47 75.1946 123.47C75.1649 123.47 74.5011 121.649 73.7284 119.432C72.9557 117.215 71.9155 114.236 71.4102 112.801L70.5087 110.208H67.9825C66.0012 110.208 65.4662 110.237 65.5058 110.326Z" fill="#17434E"/>
<path d="M90.2726 110.376C90.233 110.475 88.5192 114.939 86.4586 120.293C84.398 125.648 82.7138 130.072 82.7138 130.121C82.7138 130.161 83.7936 130.2 85.1211 130.2H87.5186L88.8064 126.538H96.1572L96.7715 128.251C97.1083 129.191 97.4253 130.022 97.4649 130.082C97.5244 130.171 98.1485 130.2 99.9812 130.181L102.418 130.151L94.5127 110.257L92.4224 110.228C90.5005 110.208 90.3321 110.218 90.2726 110.376ZM93.5914 119.393L94.6712 122.382H92.5116C91.3029 122.382 90.342 122.342 90.342 122.292C90.342 122.223 91.0949 120.075 92.3431 116.611C92.4026 116.463 92.462 116.344 92.4818 116.364C92.4917 116.384 92.997 117.74 93.5914 119.393Z" fill="#17434E"/>
<path d="M101.239 135.842C101.041 136.119 101.041 136.139 101.21 136.139C101.309 136.129 101.547 136 101.735 135.842L102.072 135.545H101.764C101.527 135.545 101.398 135.624 101.239 135.842Z" fill="#17434E"/>
<path d="M14.5059 136.327C13.6341 136.723 13.2181 137.673 13.5054 138.633C13.753 139.484 14.4663 139.999 15.3975 139.999C16.2099 139.999 16.8043 139.652 17.151 138.96C17.5275 138.237 17.3492 137.139 16.7647 136.614C16.2396 136.139 15.2093 136 14.5059 136.327ZM16.2 137.267C16.4873 137.554 16.5368 137.673 16.5368 138.059C16.5368 138.435 16.4774 138.574 16.2099 138.871C15.9226 139.187 15.8334 139.227 15.3975 139.227C14.9616 139.227 14.8725 139.187 14.5852 138.871C14.3177 138.574 14.2583 138.435 14.2583 138.059C14.2583 137.673 14.3078 137.554 14.5951 137.267C14.8824 136.98 15.0013 136.931 15.3975 136.931C15.7938 136.931 15.9127 136.98 16.2 137.267Z" fill="#17434E"/>
<path d="M19.39 136.268C18.4191 136.723 17.9634 137.911 18.4092 138.861C18.7559 139.613 19.3503 139.999 20.1528 139.999C20.9354 139.999 21.4406 139.682 21.7973 138.989C21.8964 138.781 21.9855 138.593 21.9855 138.564C21.9855 138.534 21.7874 138.514 21.5397 138.514C21.292 138.514 21.0939 138.564 21.0939 138.613C21.0939 138.673 20.9849 138.831 20.8462 138.96C20.5391 139.276 19.8556 139.306 19.4791 139.009C19.1126 138.722 18.964 138.188 19.1027 137.713C19.2612 137.198 19.6277 136.931 20.1726 136.931C20.5589 136.931 20.6679 136.98 20.9354 137.277C21.193 137.554 21.3317 137.623 21.619 137.623C21.8171 137.623 21.9855 137.604 21.9855 137.574C21.9855 137.366 21.5298 136.693 21.2326 136.466C20.9453 136.248 20.7472 136.188 20.2617 136.169C19.9249 136.159 19.5386 136.198 19.39 136.268Z" fill="#17434E"/>
<path d="M27.88 136.327C26.7309 136.842 26.394 138.346 27.2064 139.306C27.7314 139.939 28.7023 140.177 29.4453 139.86C29.7524 139.732 30.4063 139.088 30.4063 138.91C30.4063 138.871 30.436 138.762 30.4657 138.673C30.5152 138.544 30.4558 138.514 30.1586 138.514C29.8713 138.514 29.7326 138.584 29.475 138.861C29.1877 139.158 29.0788 139.207 28.6924 139.207C28.3258 139.207 28.1871 139.158 27.9395 138.9C27.672 138.643 27.6324 138.524 27.6324 138.069C27.6324 137.614 27.672 137.495 27.9395 137.237C28.1871 136.98 28.3258 136.931 28.6924 136.931C29.0788 136.931 29.1877 136.98 29.475 137.277C29.7326 137.554 29.8713 137.623 30.1586 137.623C30.4558 137.623 30.5152 137.594 30.4657 137.465C30.436 137.376 30.4063 137.267 30.4063 137.228C30.4063 137.049 29.7524 136.406 29.4453 136.277C28.9995 136.089 28.3556 136.109 27.88 136.327Z" fill="#17434E"/>
<path d="M45.5735 136.248C44.8106 136.555 44.3747 137.218 44.3747 138.069C44.3747 138.603 44.6224 139.257 44.9295 139.524C45.7617 140.256 47.1883 140.108 47.7926 139.237C48.1591 138.683 48.1294 138.514 47.644 138.514C47.426 138.514 47.2477 138.554 47.2477 138.603C47.2477 138.643 47.1288 138.801 46.9901 138.95C46.6038 139.326 45.9796 139.316 45.5437 138.92C45.2465 138.653 45.2168 138.574 45.2168 138.069C45.2168 137.564 45.2465 137.485 45.5437 137.218C45.9796 136.822 46.6038 136.812 46.9901 137.188C47.1288 137.336 47.2477 137.495 47.2477 137.534C47.2477 137.584 47.426 137.623 47.644 137.623C48.1393 137.623 48.169 137.435 47.7529 136.861C47.3071 136.248 46.2967 135.961 45.5735 136.248Z" fill="#17434E"/>
<path d="M50.1306 136.248C49.3578 136.555 48.9318 137.198 48.9318 138.069C48.9318 139.148 49.6055 139.89 50.6754 139.979C52.4785 140.128 53.5682 138.178 52.4289 136.822C52.2803 136.644 51.9831 136.426 51.7553 136.327C51.3293 136.129 50.5169 136.089 50.1306 136.248ZM51.6958 137.228C52.1614 137.703 52.1614 138.435 51.6958 138.9C50.9528 139.643 49.7244 139.118 49.7244 138.049C49.7244 137.673 49.7739 137.554 50.0612 137.267C50.3584 136.97 50.4575 136.931 50.8934 136.931C51.3194 136.931 51.4382 136.98 51.6958 137.228Z" fill="#17434E"/>
<path d="M58.8782 136.277C58.4621 136.456 58.2442 136.792 58.2442 137.238C58.2442 137.782 58.5414 138.079 59.324 138.316C60.0373 138.524 60.285 138.712 60.1859 138.96C60.0373 139.356 59.1754 139.316 59.0664 138.91C59.0268 138.752 58.9277 138.712 58.5711 138.712C58.1352 138.712 58.1253 138.722 58.1946 138.979C58.2937 139.415 58.5315 139.712 58.8881 139.86C59.6113 140.157 60.6317 139.93 60.8893 139.405C60.9586 139.266 61.0181 138.989 61.0181 138.791C61.0181 138.267 60.701 137.96 59.8887 137.693C59.116 137.445 58.8683 137.198 59.1754 136.97C59.4627 136.762 59.7104 136.802 59.9878 137.079C60.1562 137.247 60.3444 137.327 60.5921 137.327C60.9388 137.327 60.9388 137.317 60.8794 137.01C60.8001 136.614 60.6515 136.436 60.2552 136.268C59.8491 136.099 59.2745 136.109 58.8782 136.277Z" fill="#17434E"/>
<path d="M73.4213 136.347C72.173 136.97 72.0641 138.91 73.2231 139.672C74.5209 140.533 76.3735 139.593 76.3735 138.069C76.3735 136.634 74.7488 135.694 73.4213 136.347ZM75.1649 137.228C75.6602 137.722 75.6701 138.415 75.1748 138.9C74.6992 139.375 73.9661 139.356 73.4906 138.851C73.3024 138.643 73.2529 138.494 73.2529 138.049C73.2529 137.564 73.2826 137.475 73.5798 137.218C73.8374 136.98 73.986 136.931 74.3822 136.931C74.7884 136.931 74.9172 136.98 75.1649 137.228Z" fill="#17434E"/>
<path d="M110.076 136.347C108.828 136.97 108.719 138.91 109.878 139.682C110.423 140.038 111.255 140.098 111.8 139.821C112.275 139.583 112.484 139.356 112.682 138.88L112.83 138.514H112.384C112.137 138.514 111.939 138.564 111.939 138.613C111.939 138.673 111.82 138.831 111.681 138.96C111.364 139.257 110.72 139.296 110.373 139.049C110.096 138.861 109.858 138.405 109.858 138.069C109.858 137.732 110.096 137.277 110.373 137.089C110.72 136.842 111.364 136.881 111.681 137.178C111.82 137.307 111.939 137.465 111.939 137.525C111.939 137.574 112.137 137.623 112.384 137.623H112.83L112.682 137.257C112.484 136.782 112.275 136.555 111.82 136.327C111.324 136.079 110.611 136.089 110.076 136.347Z" fill="#17434E"/>
<path d="M2.0829 136.475C2.02346 136.604 1.71635 137.406 1.38942 138.257C1.0526 139.098 0.785114 139.811 0.785114 139.841C0.785114 139.87 0.963435 139.9 1.18138 139.9C1.53803 139.9 1.58756 139.87 1.71635 139.553L1.86495 139.207H3.32124L3.45002 139.553C3.56891 139.88 3.59863 139.9 4.01471 139.9H4.45061L4.28219 139.474C4.19303 139.247 3.8562 138.435 3.54909 137.673L2.9745 136.287L2.57823 136.258C2.22159 136.228 2.16215 136.258 2.0829 136.475ZM2.84571 137.92L3.05376 138.514H2.0829L2.30084 137.92C2.41972 137.594 2.54851 137.327 2.58814 137.327C2.61786 137.327 2.73674 137.594 2.84571 137.92Z" fill="#17434E"/>
<path d="M5.34221 139.9H6.33288C7.13533 139.9 7.41272 139.86 7.71983 139.702C8.97798 139.059 8.97798 137.079 7.71983 136.436C7.41272 136.277 7.13533 136.238 6.33288 136.238H5.34221V139.9ZM7.54151 137.317C7.75945 137.554 7.81889 137.722 7.81889 138.069C7.81889 138.415 7.75945 138.584 7.54151 138.821C7.30374 139.088 7.17496 139.148 6.69943 139.187L6.13475 139.227V136.911L6.69943 136.95C7.17496 136.99 7.30374 137.049 7.54151 137.317Z" fill="#17434E"/>
<path d="M10.6522 139.85L11.0683 139.88C11.2962 139.9 11.4844 139.89 11.4844 139.86C11.4844 139.841 11.7915 139.009 12.1679 138.019L12.8515 136.228L12.4057 136.258L11.95 136.287L11.5438 137.445C11.316 138.079 11.1079 138.623 11.0782 138.663C11.0386 138.692 10.8206 138.168 10.5829 137.505L10.147 136.287L9.68136 136.258L9.22565 136.228L10.6522 139.85Z" fill="#17434E"/>
<path d="M23.9272 136.317C23.9074 136.357 23.5706 137.178 23.1941 138.148L22.5007 139.9H22.9366C23.3328 139.9 23.3725 139.88 23.4814 139.553L23.6102 139.207H25.0665L25.2151 139.553C25.3439 139.87 25.3934 139.9 25.7897 139.9H26.2157L24.7297 136.238H24.3532C24.1452 136.238 23.957 136.268 23.9272 136.317ZM24.6207 137.92L24.8288 138.514H24.3334C23.9074 138.514 23.8579 138.494 23.9173 138.336C23.957 138.247 24.056 137.98 24.1353 137.742C24.2145 137.515 24.3136 137.327 24.3433 137.327C24.383 137.327 24.5018 137.594 24.6207 137.92Z" fill="#17434E"/>
<path d="M31.496 139.9H32.3876V136.238H31.496V139.9Z" fill="#17434E"/>
<path d="M34.0321 137.94C33.6557 138.88 33.3386 139.712 33.3089 139.771C33.2693 139.86 33.3882 139.9 33.6953 139.9C34.1114 139.9 34.151 139.88 34.2302 139.573L34.3293 139.257L35.8351 139.197L35.954 139.553C36.063 139.88 36.0927 139.9 36.5088 139.9C36.7466 139.9 36.9447 139.87 36.9348 139.821C36.9348 139.781 36.6079 138.97 36.2215 138.019L35.5082 136.287L34.6959 136.228L34.0321 137.94ZM35.4983 138.287C35.5677 138.504 35.5379 138.514 35.1219 138.514C34.8742 138.514 34.6661 138.475 34.6661 138.425C34.6661 138.376 34.7652 138.079 34.8841 137.772L35.102 137.208L35.2606 137.643C35.3596 137.871 35.4686 138.168 35.4983 138.287Z" fill="#17434E"/>
<path d="M39.4214 139.9H41.6999V139.207H40.2139V138.415H41.5018V137.732L40.2635 137.673L40.2337 137.297L40.204 136.931H41.6999V136.238H39.4214V139.9Z" fill="#17434E"/>
<path d="M53.9843 139.9H54.7669L54.8263 137.742L55.5991 138.821C56.3322 139.831 56.4015 139.9 56.7185 139.9H57.0554V136.238H56.2727L56.2133 138.346L55.4703 137.297C54.757 136.287 54.7174 136.248 54.3607 136.238H53.9843V139.9Z" fill="#17434E"/>
<path d="M62.1276 137.713C62.1573 139.128 62.1672 139.207 62.405 139.455C62.8112 139.89 63.1678 140.029 63.7622 139.979C64.3764 139.93 64.7529 139.692 65.0006 139.197C65.1492 138.93 65.1789 138.603 65.1789 137.544V136.238H64.3863V137.426C64.3863 138.118 64.3368 138.712 64.2675 138.861C64.0792 139.286 63.3858 139.365 63.0786 138.989C62.93 138.821 62.9003 138.584 62.9003 137.515V136.238H62.0979L62.1276 137.713Z" fill="#17434E"/>
<path d="M66.3677 139.9H68.6462V139.207H67.2593V136.238H66.3677V139.9Z" fill="#17434E"/>
<path d="M68.8444 136.931H69.9341V139.9H70.7267V136.931H71.7173V136.238H68.8444V136.931Z" fill="#17434E"/>
<path d="M77.4632 139.9H78.2558V139.306C78.2558 138.722 78.2657 138.712 78.5332 138.712C78.761 138.712 78.8502 138.811 79.1276 139.306C79.4545 139.9 79.4545 139.9 79.9003 139.9H80.3461L80.1777 139.573C80.0885 139.405 79.9003 139.088 79.7814 138.89C79.5436 138.524 79.5437 138.514 79.7418 138.415C80.1975 138.178 80.3659 137.376 80.0885 136.832C79.8508 136.367 79.4842 136.238 78.4044 136.238H77.4632V139.9ZM79.2266 137.089C79.6923 137.416 79.3653 137.92 78.6818 137.92H78.2558V136.931H78.6322C78.8403 136.931 79.1078 137 79.2266 137.089Z" fill="#17434E"/>
<path d="M81.4259 139.9H82.2185V136.238H81.4259V139.9Z" fill="#17434E"/>
<path d="M84.0314 137.554C83.7441 138.267 83.4271 139.098 83.3181 139.375L83.1101 139.9H83.546C83.9621 139.9 83.9918 139.88 84.1008 139.553L84.2196 139.197L85.7255 139.257L85.8245 139.573C85.9038 139.88 85.9434 139.9 86.3595 139.9C86.7359 139.9 86.7855 139.87 86.7359 139.722C86.6963 139.633 86.3694 138.811 86.0028 137.891L85.3391 136.238H84.5466L84.0314 137.554ZM85.2103 137.901C85.3094 138.158 85.3886 138.395 85.3886 138.435C85.3886 138.485 85.1905 138.514 84.9428 138.514C84.6952 138.514 84.497 138.494 84.497 138.465C84.497 138.306 84.923 137.327 84.9725 137.376C85.0023 137.406 85.1112 137.643 85.2103 137.901Z" fill="#17434E"/>
<path d="M90.7184 137.643C90.6887 139.019 90.6788 139.059 90.451 139.167C90.1141 139.336 89.8169 139.197 89.698 138.831C89.6188 138.544 89.5693 138.514 89.2324 138.514C88.8857 138.514 88.856 138.534 88.856 138.781C88.856 139.158 89.1829 139.662 89.5395 139.85C89.9556 140.058 90.6293 140.038 90.976 139.811C91.4714 139.484 91.5209 139.286 91.5308 137.693V136.238H90.7482L90.7184 137.643Z" fill="#17434E"/>
<path d="M92.8385 137.713C92.8682 139.128 92.8781 139.207 93.1159 139.455C93.522 139.89 93.8787 140.029 94.4731 139.979C95.0873 139.93 95.4638 139.692 95.7114 139.197C95.86 138.93 95.8897 138.603 95.8897 137.544V136.238H95.0972V137.426C95.0972 138.118 95.0477 138.712 94.9783 138.861C94.7901 139.286 94.0966 139.365 93.7895 138.989C93.6409 138.821 93.6112 138.584 93.6112 137.515V136.238H92.8088L92.8385 137.713Z" fill="#17434E"/>
<path d="M97.0786 139.9H97.9702V139.296C97.9702 138.702 97.9702 138.702 98.2377 138.732C98.4457 138.752 98.5745 138.89 98.8321 139.326C99.159 139.89 99.1788 139.9 99.6147 139.9H100.07L99.793 139.425C99.6444 139.167 99.4661 138.861 99.3868 138.752C99.268 138.564 99.2779 138.524 99.4958 138.386C99.6246 138.297 99.793 138.069 99.8525 137.871C100.021 137.346 99.902 136.901 99.4958 136.545C99.159 136.248 99.1293 136.238 98.1188 136.238H97.0786V139.9ZM98.9608 137.129C99.1986 137.366 99.1986 137.416 99.0005 137.703C98.8816 137.871 98.7528 137.92 98.4061 137.92H97.9702V136.931H98.3664C98.6339 136.931 98.8321 137 98.9608 137.129Z" fill="#17434E"/>
<path d="M102.824 139.9H103.756C105.083 139.9 105.529 139.682 105.905 138.861C106.341 137.911 105.896 136.693 104.974 136.347C104.816 136.287 104.271 136.238 103.756 136.238H102.824V139.9ZM104.707 137.109C105.43 137.465 105.47 138.593 104.776 139.009C104.598 139.128 104.281 139.207 104.043 139.207H103.617V136.931H103.993C104.192 136.931 104.519 137.01 104.707 137.109Z" fill="#17434E"/>
<path d="M107.183 139.9H107.976V136.238H107.183V139.9Z" fill="#17434E"/>
<path d="M114.178 137.742C113.851 138.574 113.524 139.405 113.454 139.573L113.326 139.9H113.762C114.178 139.9 114.207 139.88 114.316 139.553L114.435 139.197L115.941 139.257L116.04 139.573C116.119 139.88 116.159 139.9 116.575 139.9C116.951 139.9 117.001 139.88 116.951 139.722C116.912 139.633 116.585 138.811 116.228 137.891L115.565 136.238H114.762L114.178 137.742ZM115.426 137.901C115.525 138.158 115.604 138.395 115.604 138.435C115.604 138.485 115.406 138.514 115.158 138.514C114.911 138.514 114.713 138.494 114.713 138.465C114.713 138.306 115.139 137.327 115.188 137.376C115.218 137.406 115.327 137.643 115.426 137.901Z" fill="#17434E"/>
<path d="M100.942 139.9H101.735V136.238H100.942V139.9Z" fill="#17434E"/>
<path fill-rule="evenodd" clip-rule="evenodd" d="M26.6106 71.8814L46.7529 60.1142C47.1957 60.8511 48.4423 62.7633 49.8867 64.5173C51.6923 66.7098 61.8513 75.0147 72.407 73.1095C82.9627 71.2043 86.0522 68.0634 90.326 63.0172C93.745 58.9803 94.7028 52.7533 94.7543 50.1444V4.98645C94.8693 0.671434 91.0772 0.649067 89.4124 1.55875C84.9912 4.09087 79.8981 7.07623 78.0122 8.18165L78.0095 8.18322L78.0051 8.18583L77.9992 8.1893L77.9955 8.19146L77.9917 8.19371L77.9832 8.19865L77.9774 8.20207L77.9754 8.20324L77.9692 8.2069L77.9657 8.20892L77.9637 8.21011C77.5596 8.44692 77.3137 8.59108 77.2675 8.61748C77.0101 8.76449 71.9238 11.7279 71.9238 11.7279V5.69443C71.9238 1.13672 69.6774 0.00809206 66.771 0.00807944C65.8013 0.00807522 64.5584 0.00657124 63.1459 0.00486218C58.7674 -0.000435781 52.7602 -0.0077045 48.2144 0.0216231C40.6992 0.0701085 35.9966 1.22065 29.8865 6.06805C24.2824 10.5139 21.9287 17.5003 21.5959 21.0158V68.8225C21.5959 71.6617 24.5966 72.7968 26.6106 71.8814ZM89.4608 7.38756L71.9782 17.5371V67.8696C74.2125 67.6814 79.7071 66.3959 83.811 62.7595C87.915 59.123 89.5643 53.3066 89.876 50.853V7.96405C89.8655 7.69762 89.7678 7.20931 89.4608 7.38756ZM50.0172 21.0729C49.662 23.7021 50.0172 34.2195 50.0172 34.2195C52.6882 33.663 55.8559 32.6772 57.9468 31.4371C64.0028 27.8454 66.0709 22.265 66.847 19.8453C67.6232 17.4256 67.1285 4.86582 67.1285 4.86582C62.4794 5.27405 58.8537 7.6042 55.6932 10.2647C51.7619 13.5741 50.4112 18.1561 50.0172 21.0729ZM50.0184 38.5269C50.0184 38.5269 49.6633 49.0443 50.0184 51.6735C50.4125 54.5903 51.7631 59.1723 55.6945 62.4817C58.855 65.1422 62.4807 67.4724 67.1298 67.8806C67.1298 67.8806 67.6244 55.3208 66.8483 52.9011C66.0722 50.4814 64.0041 44.901 57.9481 41.3093C55.8572 40.0692 52.6895 39.0834 50.0184 38.5269ZM45.0038 4.81607C48.3767 4.59297 54.0338 4.66921 54.0338 4.66921L50.8321 7.71551C46.0125 11.9172 44.4764 18.4175 44.3108 21.1424V55.9338L27.5876 65.623C27.1773 65.8258 26.9889 65.936 26.9024 65.8823C26.8289 65.8366 26.8289 65.6728 26.8289 65.3471V21.1424C26.9782 19.6066 28.0699 15.5894 31.2419 11.8064C34.414 8.02338 39.2902 5.19402 45.0038 4.81607Z" fill="url(#paint0_linear_58_4)"/>
<defs>
<linearGradient id="paint0_linear_58_4" x1="58.1764" y1="0" x2="58.1764" y2="73.3912" gradientUnits="userSpaceOnUse">
<stop stop-color="#E08161"/>
<stop offset="1" stop-color="#C95B38"/>
</linearGradient>
</defs>
</svg>
