<svg width="35" height="35" viewBox="0 0 35 35" fill="none" xmlns="http://www.w3.org/2000/svg">
<g clip-path="url(#clip0_2_4)">
<path fill-rule="evenodd" clip-rule="evenodd" d="M7 0C3.122 0 0 3.122 0 7V28C0 31.878 3.122 35 7 35H28C31.878 35 35 31.878 35 28V7C35 3.122 31.878 0 28 0H7ZM20.2559 11.5289C20.2559 12.815 21.2664 13.8254 22.5525 13.8254H25.7677C26.3189 13.8254 26.6864 14.1929 26.6864 14.7441V23.9305C26.6864 25.9514 25.0328 27.605 23.0118 27.605H11.9882C9.96717 27.605 8.31363 25.9514 8.31363 23.9305V11.0695C8.31363 9.04858 9.96717 7.39503 11.9882 7.39503H19.3373C19.8884 7.39503 20.2559 7.76245 20.2559 8.31363V11.5289ZM19.3373 22.0932H13.8254C13.2743 22.0932 12.9068 21.7257 12.9068 21.1746C12.9068 20.6234 13.2743 20.2559 13.8254 20.2559H19.3373C19.8884 20.2559 20.2559 20.6234 20.2559 21.1746C20.2559 21.7257 19.8884 22.0932 19.3373 22.0932ZM21.1746 18.4187H13.8254C13.2743 18.4187 12.9068 18.0512 12.9068 17.5C12.9068 16.9488 13.2743 16.5813 13.8254 16.5813H21.1746C21.7257 16.5813 22.0932 16.9488 22.0932 17.5C22.0932 18.0512 21.7257 18.4187 21.1746 18.4187Z" fill="#17434E"/>
</g>
<defs>
<clipPath id="clip0_2_4">
<rect width="35" height="35" fill="white"/>
</clipPath>
</defs>
</svg>
