<svg xmlns="http://www.w3.org/2000/svg"  viewBox="0 0 64 64" width="64px" height="64px"><path fill="#85cbf8" d="M54.93,17.21V56a3,3,0,0,1-3,3h-38a3,3,0,0,1-3-2.63,2.31,2.31,0,0,1,0-.37V8a3,3,0,0,1,3-3H42.68a3,3,0,0,1,1.77.58,2,2,0,0,1,.36.3L54,15.09a2.69,2.69,0,0,1,.57.82A2.8,2.8,0,0,1,54.93,17.21Z"/><path fill="#9fddff" d="M55 29L25 59H11l0-2.66 0-1.75-.08-5 .08-.08L49.68 10.72 54 15.09a2.69 2.69 0 0 1 .57.82l.31 10.66zM47.48 8.52L11 45l-.07-2.73-.08-3.12.08-.08L44.45 5.55a2 2 0 0 1 .36.3zM10.85 33.15L39 5 42 5 10.85 36.15 10.85 33.15z"/><path fill="#fff" d="M20.42 16.03L19.19 18.29 16.92 19.53 19.19 20.77 20.42 23.03 21.66 20.77 23.93 19.53 21.66 18.29 20.42 16.03zM35.51 10.03L34.65 11.6 33.09 12.45 34.65 13.3 35.51 14.87 36.36 13.3 37.93 12.45 36.36 11.6 35.51 10.03zM50.28 42.03L49.7 43.1 48.63 43.68 49.7 44.26 50.28 45.33 50.86 44.26 51.93 43.68 50.86 43.1 50.28 42.03z"/><path fill="#ffefb8" d="M42.93 5.03L42.93 17.03 54.93 17.03 42.93 5.03z"/><path fill="#8d6c9f" d="M54.54,14.12,45.88,5.46A5,5,0,0,0,42.34,4H13a3,3,0,0,0-3,3V57a3,3,0,0,0,3,3H53a3,3,0,0,0,3-3V17.66A5,5,0,0,0,54.54,14.12Zm-1.41,1.41a3,3,0,0,1,.38.46H45a1,1,0,0,1-1-1V6.5a3,3,0,0,1,.46.38ZM53,58H13a1,1,0,0,1-1-1V7a1,1,0,0,1,1-1H42v9a3,3,0,0,0,3,3h9V57A1,1,0,0,1,53,58Z"/><path fill="#8d6c9f" d="M15 50a1 1 0 0 0-1 1v2a1 1 0 0 0 2 0V51A1 1 0 0 0 15 50zM20 50a1 1 0 0 0-1 1v2a1 1 0 0 0 2 0V51A1 1 0 0 0 20 50zM25 50a1 1 0 0 0-1 1v2a1 1 0 0 0 2 0V51A1 1 0 0 0 25 50zM30 50a1 1 0 0 0-1 1v2a1 1 0 0 0 2 0V51A1 1 0 0 0 30 50zM35 50a1 1 0 0 0-1 1v2a1 1 0 0 0 2 0V51A1 1 0 0 0 35 50zM40 50a1 1 0 0 0-1 1v2a1 1 0 0 0 2 0V51A1 1 0 0 0 40 50zM45 50a1 1 0 0 0-1 1v2a1 1 0 0 0 2 0V51A1 1 0 0 0 45 50zM50 50a1 1 0 0 0-1 1v2a1 1 0 0 0 2 0V51A1 1 0 0 0 50 50z"/><path fill="#fff" d="M23 32H43a1 1 0 0 0 0-2H23a1 1 0 0 0 0 2zM23 36H43a1 1 0 0 0 0-2H23a1 1 0 0 0 0 2zM43 38H23a1 1 0 0 0 0 2H43a1 1 0 0 0 0-2zM33 42H23a1 1 0 0 0 0 2H33a1 1 0 0 0 0-2z"/></svg>