<svg width="35" height="35" viewBox="0 0 35 35" fill="none" xmlns="http://www.w3.org/2000/svg">
<g clip-path="url(#clip0_2_7)">
<path d="M5.8315 -311.665C2.60157 -311.665 0 -309.064 0 -305.834V-282.502C0 -279.267 2.60157 -276.665 5.8315 -276.665H29.1685C32.3984 -276.665 35 -279.267 35 -282.502V-305.834C35 -309.064 32.3984 -311.665 29.1685 -311.665H5.8315ZM10.2134 -305.834H24.7866C27.1843 -305.834 29.1685 -303.861 29.1685 -301.463V-286.873C29.1685 -284.476 27.1843 -282.508 24.7866 -282.508H10.2134C9.05543 -282.512 7.94588 -282.973 7.12553 -283.79C6.30517 -284.608 5.84019 -285.715 5.8315 -286.873V-301.463C5.8315 -303.861 7.81575 -305.834 10.2134 -305.834V-305.834ZM10.2134 -302.913C10.0206 -302.919 9.82865 -302.885 9.64914 -302.815C9.46963 -302.744 9.30633 -302.638 9.16919 -302.502C9.03205 -302.367 8.92392 -302.205 8.85138 -302.026C8.77884 -301.847 8.74341 -301.656 8.74724 -301.463V-286.873C8.74724 -286.047 9.37559 -285.424 10.2134 -285.424H24.7866C24.9792 -285.418 25.1708 -285.452 25.35 -285.523C25.5291 -285.594 25.6921 -285.7 25.8291 -285.836C25.9661 -285.971 26.0742 -286.133 26.147 -286.311C26.2198 -286.489 26.2558 -286.681 26.2528 -286.873V-301.463C26.2558 -301.656 26.2198 -301.847 26.147 -302.025C26.0742 -302.204 25.9661 -302.365 25.8291 -302.501C25.6921 -302.636 25.5291 -302.742 25.35 -302.813C25.1708 -302.884 24.9792 -302.918 24.7866 -302.913H10.2134ZM23.3315 -301.458C23.7179 -301.458 24.0886 -301.304 24.3624 -301.032C24.6361 -300.759 24.7907 -300.389 24.7921 -300.002C24.7921 -299.615 24.6382 -299.243 24.3643 -298.97C24.0904 -298.696 23.7189 -298.542 23.3315 -298.542C22.9451 -298.543 22.575 -298.698 22.3022 -298.971C22.0295 -299.245 21.8764 -299.616 21.8764 -300.002C21.8778 -300.388 22.0316 -300.757 22.3042 -301.03C22.5767 -301.302 22.946 -301.456 23.3315 -301.458V-301.458ZM17.5 -299.997C20.7024 -299.997 23.3315 -297.368 23.3315 -294.165C23.3315 -290.958 20.7024 -288.323 17.5 -288.323C15.9528 -288.329 14.4706 -288.946 13.3771 -290.041C12.2835 -291.135 11.6673 -292.618 11.663 -294.165C11.663 -297.368 14.2976 -299.997 17.5 -299.997ZM17.5 -297.076C17.1165 -297.079 16.7362 -297.005 16.3812 -296.86C16.0262 -296.715 15.7035 -296.501 15.4318 -296.23C15.1601 -295.96 14.9448 -295.638 14.7983 -295.283C14.6519 -294.929 14.5773 -294.549 14.5787 -294.165C14.5787 -292.534 15.874 -291.244 17.5 -291.244C19.126 -291.244 20.4213 -292.534 20.4213 -294.165C20.4242 -294.55 20.3506 -294.931 20.2048 -295.286C20.0589 -295.641 19.8438 -295.964 19.5719 -296.236C19.2999 -296.507 18.9767 -296.722 18.621 -296.867C18.2652 -297.012 17.8842 -297.085 17.5 -297.081V-297.076ZM5.8315 -4.78722e-05C2.60157 -4.78722e-05 0 2.6016 0 5.83153V29.1684C0 32.3983 2.60157 35 5.8315 35H29.1685C32.3984 35 35 32.3983 35 29.1684V5.83153C35 2.6016 32.3984 -4.78722e-05 29.1685 -4.78722e-05H5.8315ZM19.578 6.55902H22.9677V10.2133H20.5425C19.9913 10.2133 19.2748 10.3898 19.2748 11.5803V14.2039H22.9677L22.422 18.1559H19.2693V28.4354H15.3228V18.1559H12.0378V14.2039H15.3228V10.8142C15.3228 8.48817 17.252 6.56457 19.5835 6.56457L19.578 6.55902Z" fill="#17434E"/>
</g>
<defs>
<clipPath id="clip0_2_7">
<rect width="35" height="35" fill="white"/>
</clipPath>
</defs>
</svg>
