<svg xmlns="http://www.w3.org/2000/svg"  viewBox="0 0 64 64" width="64px" height="64px"><path fill="#97e0bb" d="M32,4C16.536,4,4,16.536,4,32c0,7.374,2.855,14.078,7.514,19.078C10.405,55.912,5,59,5,59h1 c3.862,0,8.192,0.002,12.534-2.448C22.53,58.748,27.118,60,32,60c15.464,0,28-12.536,28-28C60,16.536,47.464,4,32,4z"/><path fill="#72caaf" d="M32 10A22 22 0 1 0 32 54A22 22 0 1 0 32 10Z"/><path fill="#faefde" d="M53.917,30.065c-0.929-10.805-9.803-19.416-20.642-20.029c-6.301-0.354-12.454,1.999-16.887,6.463 c-4.432,4.464-6.744,10.637-6.343,16.938c0.638,10.011,8.309,18.524,18.241,20.244c1.237,0.214,2.478,0.32,3.716,0.32 c2.08,0,4.154-0.301,6.201-0.902c1.325-0.389,2.084-1.778,1.694-3.103c-0.389-1.325-1.779-2.086-3.103-1.694 c-2.525,0.741-5.103,0.895-7.656,0.451c-7.681-1.328-13.611-7.904-14.104-15.635c-0.311-4.873,1.476-9.647,4.901-13.097 c3.424-3.449,8.193-5.271,13.055-4.993c8.372,0.474,15.226,7.122,15.942,15.465c0.318,3.7-0.535,7.308-2.468,10.43 C46.056,41.587,45.302,42,44.5,42c-0.275,0-0.5-0.225-0.5-0.5v-19c0-1.381-1.119-2.5-2.5-2.5c-1.11,0-2.04,0.728-2.366,1.729 C37.019,20.025,34.375,19,31.5,19C24.607,19,19,24.832,19,32s5.607,13,12.5,13c2.846,0,5.465-1.006,7.568-2.678 C39.467,44.965,41.748,47,44.5,47c2.52,0,4.902-1.32,6.219-3.445C53.222,39.51,54.328,34.846,53.917,30.065z M31.5,40 c-4.136,0-7.5-3.589-7.5-8s3.364-8,7.5-8s7.5,3.589,7.5,8S35.636,40,31.5,40z"/><path fill="#8d6c9f" d="M32,61c-4.689,0-9.332-1.144-13.462-3.312C14.139,60,9.828,60,6.009,60H5 c-0.453,0-0.849-0.305-0.966-0.742c-0.117-0.438,0.076-0.899,0.469-1.126c0.048-0.027,4.664-2.719,5.904-6.782 C5.626,46.02,3,39.171,3,32C3,16.01,16.009,3,32,3s29,13.01,29,29S47.991,61,32,61z M18.534,55.552c0.166,0,0.332,0.041,0.482,0.124 C22.973,57.851,27.462,59,32,59c14.888,0,27-12.112,27-27S46.888,5,32,5S5,17.112,5,32c0,6.849,2.573,13.382,7.245,18.396 c0.227,0.243,0.317,0.582,0.243,0.905c-0.668,2.911-2.705,5.205-4.41,6.685c3.174-0.063,6.603-0.408,9.965-2.306 C18.195,55.595,18.365,55.552,18.534,55.552z"/><path fill="#8d6c9f" d="M32.003 55.001c-1.293 0-2.601-.112-3.886-.335C17.734 52.868 9.715 43.967 9.048 33.5c-.419-6.585 1.998-13.038 6.631-17.705 4.632-4.665 11.072-7.128 17.652-6.757 11.333.641 20.611 9.644 21.582 20.941l0 0c.43 4.995-.727 9.871-3.344 14.102C50.071 46.498 47.363 48 44.5 48c-2.66 0-5.024-1.658-6.008-4.041C36.382 45.298 33.991 46 31.5 46 24.056 46 18 39.72 18 32s6.056-14 13.5-14c2.625 0 5.135.776 7.323 2.256.612-.736 1.51-1.201 2.498-1.251-2.396-1.724-5.279-2.803-8.385-2.979-4.591-.265-9.065 1.451-12.288 4.699-3.225 3.247-4.906 7.74-4.613 12.329.463 7.275 6.046 13.463 13.276 14.713 2.398.415 4.823.272 7.204-.426.893-.265 1.838-.164 2.659.284.823.448 1.421 1.189 1.685 2.089.264.896.162 1.842-.286 2.663-.448.82-1.189 1.417-2.086 1.681C36.357 54.684 34.176 55.001 32.003 55.001zM32.032 11.001c-5.596 0-10.983 2.225-14.934 6.203-4.23 4.261-6.438 10.154-6.054 16.169.608 9.555 7.932 17.681 17.414 19.322 3.146.545 6.362.356 9.465-.556.385-.113.702-.369.895-.721.192-.352.235-.757.122-1.141-.113-.386-.37-.704-.722-.896-.352-.191-.756-.233-1.137-.121-2.679.787-5.409.946-8.111.478-8.13-1.406-14.409-8.369-14.931-16.557-.329-5.159 1.563-10.213 5.19-13.865 3.627-3.653 8.67-5.573 13.821-5.286 8.865.501 16.123 7.542 16.881 16.377.337 3.917-.566 7.735-2.614 11.042C46.725 42.406 45.646 43 44.5 43c-.827 0-1.5-.673-1.5-1.5v-19c0-.827-.673-1.5-1.5-1.5-.644 0-1.213.417-1.416 1.038-.102.313-.351.556-.666.649-.314.092-.656.026-.912-.181C36.47 20.867 34.047 20 31.5 20 25.159 20 20 25.383 20 32s5.159 12 11.5 12c2.519 0 4.921-.851 6.946-2.461.279-.222.656-.278.988-.147s.569.429.623.781C40.387 44.354 42.296 46 44.5 46c2.176 0 4.233-1.139 5.369-2.972 2.389-3.861 3.444-8.314 3.052-12.877l0 0c-.887-10.313-9.356-18.531-19.702-19.117C32.823 11.013 32.426 11.001 32.032 11.001zM45 22.681v18.225c.255-.102.474-.278.617-.509 1.818-2.938 2.622-6.333 2.322-9.817C47.687 27.651 46.632 24.945 45 22.681zM31.5 41c-4.687 0-8.5-4.037-8.5-9s3.813-9 8.5-9 8.5 4.037 8.5 9S36.187 41 31.5 41zM31.5 25c-3.584 0-6.5 3.141-6.5 7s2.916 7 6.5 7 6.5-3.141 6.5-7S35.084 25 31.5 25zM62.938 13.868c0 .338-.172.668-.482.856l-1.711 1.036c-.472.286-1.087.135-1.373-.338-.283-.47-.135-1.086.338-1.373l1.711-1.036c.472-.286 1.087-.135 1.373.338C62.891 13.513 62.938 13.691 62.938 13.868zM59.654 9.315c0 .282-.119.563-.352.762l-1.523 1.297c-.421.357-1.052.307-1.41-.113-.357-.421-.308-1.051.113-1.41l1.523-1.297c.421-.357 1.052-.307 1.41.113C59.576 8.855 59.654 9.086 59.654 9.315zM55.685 5.346c0 .229-.078.46-.238.648l-1.297 1.523c-.358.42-.989.471-1.41.113-.421-.36-.471-.99-.113-1.41l1.297-1.523c.358-.42.989-.471 1.41-.113C55.565 4.782 55.685 5.063 55.685 5.346zM51.131 2.063c0 .177-.047.355-.145.517L49.95 4.291c-.286.473-.901.624-1.373.338-.474-.288-.622-.904-.338-1.373l1.036-1.711c.286-.473.901-.624 1.373-.338C50.959 1.396 51.131 1.726 51.131 2.063z"/></svg>