<svg width="35" height="35" viewBox="0 0 35 35" fill="none" xmlns="http://www.w3.org/2000/svg">
<path d="M7 0C3.122 0 0 3.122 0 7V28C0 31.878 3.122 35 7 35H28C31.878 35 35 31.878 35 28V7C35 3.122 31.878 0 28 0H7ZM6.51943 7.38362H28.4806C29.7552 7.38362 30.8192 8.44828 30.8192 9.72267V25.278C30.8192 26.5524 29.7552 27.6164 28.4806 27.6164H6.51943C5.24475 27.6164 4.18075 26.5524 4.18075 25.278V9.72267C4.18075 8.44828 5.24475 7.38362 6.51943 7.38362ZM7.92819 9.83362L17.5014 19.7421L27.1177 9.83362H7.92819ZM6.63076 11.0096V23.7632L12.8982 17.4958L6.63076 11.0096ZM28.3692 11.0565L22.0675 17.549L28.3689 23.8508L28.3692 11.0565ZM14.1141 18.7544L7.70209 25.1664H27.2104L20.8488 18.8055L18.1282 21.6093C18.0466 21.6936 17.9488 21.7606 17.8407 21.8063C17.7325 21.852 17.6164 21.8754 17.499 21.8753C17.3817 21.8752 17.2655 21.8515 17.1575 21.8056C17.0495 21.7596 16.9519 21.6924 16.8703 21.608L14.1141 18.7544Z" fill="#17434E"/>
</svg>
