<svg width="35" height="35" viewBox="0 0 35 35" fill="none" xmlns="http://www.w3.org/2000/svg">
<g clip-path="url(#clip0_2_14)">
<path fill-rule="evenodd" clip-rule="evenodd" d="M0 7C0 3.122 3.122 0 7 0H28C31.878 0 35 3.122 35 7V28C35 31.878 31.878 35 28 35H7C3.122 35 0 31.878 0 28V7ZM5.55309 17.5C5.55309 10.9292 10.9292 5.5531 17.5 5.5531C24.0708 5.5531 29.4469 10.9292 29.4469 17.5C29.4469 24.0708 24.0708 29.4469 17.5 29.4469C10.9292 29.4469 5.55309 24.0708 5.55309 17.5ZM25.7434 12.7212H22.2788C21.9204 11.1681 21.323 9.85396 20.6062 8.42034C22.7567 9.25665 24.6682 10.6903 25.7434 12.7212ZM17.5 7.94247C18.4557 9.37609 19.2921 10.9292 19.7699 12.7212H15.2301C15.7079 11.0486 16.5443 9.37609 17.5 7.94247ZM8.30084 19.8894C8.06191 19.1726 7.94246 18.3363 7.94246 17.5C7.94246 16.6637 8.06191 15.8274 8.30084 15.1106H12.3628C12.2433 15.9469 12.2433 16.6637 12.2433 17.5C12.2433 17.9181 12.2732 18.3064 12.3031 18.6947C12.333 19.083 12.3628 19.4712 12.3628 19.8894H8.30084ZM9.25665 22.2788H12.7212C13.0796 23.8319 13.677 25.146 14.3938 26.5797C12.2433 25.7434 10.3318 24.3097 9.25665 22.2788ZM12.7212 12.7212H9.25665C10.4513 10.6903 12.2433 9.25665 14.3938 8.42034C13.677 9.85396 13.0796 11.1681 12.7212 12.7212ZM17.5 27.0575C16.5443 25.6239 15.7079 24.0708 15.2301 22.2788H19.7699C19.2921 23.9514 18.4557 25.6239 17.5 27.0575ZM20.4033 19.0373C20.3471 19.3134 20.29 19.594 20.2478 19.8894H14.7522C14.7387 19.7953 14.7253 19.7027 14.7121 19.6113C14.6073 18.8903 14.5133 18.2422 14.5133 17.5C14.5133 16.7578 14.6073 16.1097 14.7121 15.3887C14.7253 15.2973 14.7387 15.2047 14.7522 15.1106H20.3672C20.3807 15.2047 20.3941 15.2973 20.4074 15.3887C20.5121 16.1098 20.6062 16.7578 20.6062 17.5C20.6062 18.0409 20.5063 18.5318 20.4033 19.0373ZM20.6062 26.5797C21.323 25.2655 21.9204 23.8319 22.2788 22.2788H25.7434C24.6682 24.3097 22.7567 25.7434 20.6062 26.5797ZM26.8186 19.8894H22.7567C22.8761 19.0531 22.8761 18.3363 22.8761 17.5C22.8761 17.0819 22.8462 16.6936 22.8164 16.3053C22.7865 15.917 22.7567 15.5288 22.7567 15.1106H26.8186C27.0575 15.8274 27.177 16.6637 27.177 17.5C27.177 18.3363 27.0575 19.1726 26.8186 19.8894Z" fill="#17434E"/>
</g>
<defs>
<clipPath id="clip0_2_14">
<rect width="35" height="35" fill="white"/>
</clipPath>
</defs>
</svg>
