<svg xmlns="http://www.w3.org/2000/svg"  viewBox="0 0 64 64" width="64px" height="64px"><path fill="#72caaf" d="M13,7h38c3.314,0,6,2.686,6,6v38c0,3.314-2.686,6-6,6H13c-3.314,0-6-2.686-6-6V13	C7,9.686,9.686,7,13,7z"/><path fill="#97e0bb" d="M11,7h42c2.209,0,4,1.791,4,4l0,0c0,1.657-1.343,3-3,3H10c-1.657,0-3-1.343-3-3l0,0	C7,8.791,8.791,7,11,7z"/><path fill="#8d6c9f" d="M51,6H13c-3.866,0-7,3.134-7,7v38c0,3.866,3.134,7,7,7h38c3.866,0,7-3.134,7-7V13	C58,9.134,54.866,6,51,6z M56,51c0,2.761-2.239,5-5,5H13c-2.761,0-5-2.239-5-5V13c0-2.761,2.239-5,5-5h38c2.761,0,5,2.239,5,5V51z"/><path fill="#8d6c9f" d="M17,16c0.552,0,1-0.448,1-1v-2c0-0.552-0.448-1-1-1s-1,0.448-1,1v2C16,15.552,16.448,16,17,16z M12,12c-0.552,0-1,0.448-1,1v2c0,0.552,0.448,1,1,1s1-0.448,1-1v-2C13,12.448,12.552,12,12,12z M32,16c0.552,0,1-0.448,1-1v-2	c0-0.552-0.448-1-1-1s-1,0.448-1,1v2C31,15.552,31.448,16,32,16z M37,16c0.552,0,1-0.448,1-1v-2c0-0.552-0.448-1-1-1s-1,0.448-1,1v2	C36,15.552,36.448,16,37,16z M42,16c0.552,0,1-0.448,1-1v-2c0-0.552-0.448-1-1-1s-1,0.448-1,1v2C41,15.552,41.448,16,42,16z M47,16	c0.552,0,1-0.448,1-1v-2c0-0.552-0.448-1-1-1s-1,0.448-1,1v2C46,15.552,46.448,16,47,16z M52,12c-0.552,0-1,0.448-1,1v2	c0,0.552,0.448,1,1,1s1-0.448,1-1v-2C53,12.448,52.552,12,52,12z M22,16c0.552,0,1-0.448,1-1v-2c0-0.552-0.448-1-1-1s-1,0.448-1,1v2	C21,15.552,21.448,16,22,16z M27,16c0.552,0,1-0.448,1-1v-2c0-0.552-0.448-1-1-1s-1,0.448-1,1v2C26,15.552,26.448,16,27,16z"/><path fill="#fff8ee" d="M32.225,26.889c4.04,0,6.303,2.203,7.438,2.941c0.277,0.18,0.642,0.136,0.876-0.096l2.246-2.532	c0.294-0.291,0.287-0.764-0.026-1.035c-0.852-0.739-2.684-2.106-5.459-3.072l0.683-3.241C38.078,19.414,37.74,19,37.29,19h-4.354	c-0.335,0-0.626,0.235-0.695,0.562l-0.52,2.47c-0.276-0.014-0.552-0.029-0.838-0.031c-4.538-0.045-8.452,2.958-8.928,6.728	c-0.453,3.583,0.868,7.872,8.233,9.779c4.122,1.068,4.867,2.359,4.655,3.883c-0.223,1.609-1.952,2.663-5.662,2.461	c-3.196-0.174-5.622-2.264-6.671-3.087c-0.288-0.225-0.695-0.194-0.947,0.071l-2.364,2.66c-0.259,0.271-0.267,0.688-0.016,0.964	c0.877,0.968,3.081,3.058,6.393,4.025l-0.561,2.66C24.923,52.586,25.26,53,25.711,53h4.354c0.335,0,0.626-0.235,0.695-0.562	l0.537-2.546c5.668-0.592,8.9-3.715,9.591-6.774c0.834-3.688-0.487-8.253-8.338-10.021c-3.543-0.798-4.7-2.293-4.482-4.022	C28.225,27.836,29.739,26.889,32.225,26.889z"/><path fill="#8d6c9f" d="M30.065,54h-4.354c-0.519,0-1.003-0.23-1.329-0.633c-0.325-0.401-0.451-0.922-0.345-1.428	l0.376-1.784c-3.122-1.144-5.187-3.158-5.971-4.024c-0.599-0.656-0.585-1.68,0.034-2.326l2.338-2.633	c0.636-0.665,1.618-0.736,2.312-0.194l0.224,0.177c1.122,0.893,3.211,2.554,5.886,2.699c1.312,0.069,4.388,0.057,4.617-1.6	c0.082-0.596,0.236-1.704-3.915-2.779c-8.72-2.258-9.365-7.78-8.975-10.872c0.54-4.28,4.842-7.604,9.819-7.604	c0.045,0,0.091,0.002,0.134,0.001l0.347-1.644C31.427,18.571,32.131,18,32.936,18h4.354c0.519,0,1.004,0.231,1.33,0.635	c0.325,0.402,0.45,0.922,0.342,1.427l-0.505,2.397c2.484,0.992,4.148,2.249,4.958,2.951c0.355,0.308,0.568,0.754,0.584,1.224	c0.016,0.476-0.17,0.941-0.511,1.278l-2.201,2.484c-0.611,0.609-1.506,0.705-2.169,0.271c-0.188-0.121-0.404-0.279-0.651-0.462	c-1.254-0.922-3.149-2.316-6.241-2.316c-1.97,0-3.083,0.659-3.166,1.311c-0.17,1.345,1.078,2.328,3.709,2.921	c3.836,0.863,6.541,2.449,8.04,4.714c1.556,2.349,1.432,4.833,1.055,6.504c-0.664,2.936-3.611,6.573-9.735,7.457l-0.39,1.848	C31.574,53.429,30.87,54,30.065,54z M26.068,52h3.762l0.639-3.027l0.725-0.075c5.565-0.582,8.176-3.596,8.719-6	c0.292-1.29,0.395-3.198-0.771-4.958c-1.205-1.819-3.497-3.121-6.813-3.867c-4.743-1.069-5.475-3.376-5.254-5.123	c0.236-1.859,2.258-3.06,5.15-3.06c3.748,0,6.141,1.76,7.426,2.706c0.123,0.09,0.237,0.174,0.342,0.249l1.878-2.12	c-0.869-0.714-2.505-1.853-4.899-2.687l-0.831-0.29L36.932,20h-3.761l-0.647,3.073l-0.853-0.042	c-0.311-0.016-0.552-0.028-0.802-0.031c-0.029,0-0.059-0.001-0.087-0.001c-3.92,0-7.426,2.611-7.835,5.854	c-0.548,4.334,1.973,7.256,7.492,8.686c2.905,0.752,5.818,1.934,5.394,4.989c-0.189,1.366-1.325,3.598-6.706,3.322	c-3.307-0.181-5.811-2.167-7.017-3.127l-2.006,2.259c0.866,0.91,2.852,2.696,5.752,3.543l0.89,0.26L26.068,52z M19.956,45.15	l-0.009,0.01C19.95,45.157,19.953,45.153,19.956,45.15z M19.923,44.786c0,0.001,0.001,0.001,0.001,0.002	C19.924,44.787,19.923,44.787,19.923,44.786z M42.037,26.538c-0.001,0-0.002,0.001-0.003,0.003L42.037,26.538z M37.006,19.646	L37.006,19.646L37.006,19.646z"/></svg>