<svg width="35" height="35" viewBox="0 0 35 35" fill="none" xmlns="http://www.w3.org/2000/svg">
<path fill-rule="evenodd" clip-rule="evenodd" d="M7 0C3.122 0 0 3.122 0 7V28C0 31.878 3.122 35 7 35H28C31.878 35 35 31.878 35 28V7C35 3.122 31.878 0 28 0H7ZM19.4727 23.5018C18.9076 23.9503 17.9207 24.1746 16.5123 24.1746C15.3729 24.1746 14.4175 24.0669 13.646 23.8516C12.8745 23.6274 12.2106 23.3896 11.6544 23.1385L10.9682 25.1973C11.3719 25.4216 11.9774 25.6593 12.7848 25.9105C13.5922 26.1527 14.6418 26.2918 15.9337 26.3277V29.7994H18.2213V26.2469C19.872 26.0495 21.092 25.5517 21.8814 24.7532C22.6709 23.9458 23.0656 22.8918 23.0656 21.5909C23.0656 20.7836 22.9176 20.0973 22.6216 19.5321C22.3345 18.9579 21.9442 18.4645 21.4509 18.0518C20.9664 17.6392 20.4013 17.2848 19.7553 16.9888C19.1184 16.6927 18.441 16.4057 17.7234 16.1276C17.1672 15.9302 16.6648 15.7418 16.2162 15.5624C15.7677 15.374 15.3775 15.1677 15.0455 14.9434C14.7136 14.7101 14.4579 14.4455 14.2785 14.1495C14.108 13.8534 14.0228 13.4946 14.0228 13.0729C14.0228 12.3014 14.3189 11.7048 14.9109 11.2832C15.512 10.8616 16.3642 10.6507 17.4677 10.6507C18.4635 10.6507 19.2888 10.7405 19.9437 10.9199C20.6076 11.0903 21.1638 11.2563 21.6123 11.4178L22.1237 9.26475C21.72 9.12117 21.1683 8.96865 20.4685 8.80721C19.7778 8.63673 19.0286 8.53361 18.2213 8.49773V5.41615H15.9337V8.57842C14.4445 8.80269 13.3096 9.33199 12.5291 10.1663C11.7486 11.0006 11.3584 12.0727 11.3584 13.3825C11.3584 14.1181 11.4885 14.737 11.7486 15.2394C12.0178 15.7418 12.3632 16.1724 12.7848 16.5313C13.2065 16.8901 13.6864 17.1951 14.2247 17.4463C14.7719 17.6886 15.3236 17.9128 15.8798 18.1191C16.445 18.3165 16.9967 18.5273 17.535 18.7516C18.0822 18.9759 18.5622 19.2271 18.9749 19.5052C19.3875 19.7743 19.7149 20.0928 19.9572 20.4606C20.2083 20.8284 20.334 21.268 20.334 21.7793C20.334 22.4791 20.0469 23.0532 19.4727 23.5018Z" fill="#17434E"/>
</svg>
