<svg width="35" height="35" viewBox="0 0 35 35" fill="none" xmlns="http://www.w3.org/2000/svg">
<g clip-path="url(#clip0_2_2)">
<path d="M5.8315 -6.10352e-05C2.60157 -6.10352e-05 0 2.60159 0 5.83151V29.1684C0 32.3983 2.60157 35 5.8315 35H29.1685C32.3984 35 35 32.3983 35 29.1684V5.83151C35 2.60159 32.3984 -6.10352e-05 29.1685 -6.10352e-05H5.8315ZM17.5 6.55902C23.5244 6.55902 28.4354 11.4757 28.4354 17.5001C28.4296 20.3985 27.2756 23.1766 25.2261 25.2261C23.1766 27.2757 20.3985 28.4295 17.5 28.4354C15.8326 28.4174 14.1918 28.0158 12.7047 27.2614L6.61969 28.4024L7.74409 22.2953C6.98747 20.8088 6.58383 19.1679 6.56457 17.5001C6.56457 11.4757 11.4756 6.56458 17.5 6.56458V6.55902ZM17.5 9.29843C16.0693 9.29487 14.6627 9.66642 13.4203 10.376C12.1779 11.0855 11.1433 12.1082 10.4194 13.3423C9.69561 14.5764 9.30789 15.9787 9.29495 17.4094C9.282 18.84 9.64428 20.249 10.3457 21.496L10.5827 21.9259L10.026 24.9796L13.0575 24.4119L13.4984 24.6598C14.7461 25.3641 16.1569 25.7286 17.5896 25.7168C19.0223 25.705 20.4268 25.3173 21.6628 24.5925C22.8987 23.8677 23.9227 22.8311 24.6324 21.5865C25.3421 20.3418 25.7127 18.9328 25.7071 17.5001C25.7071 12.9528 22.0472 9.29843 17.5 9.29843ZM14.226 12.2086C14.4011 12.2066 14.5761 12.2177 14.7496 12.2417C14.8819 12.2638 14.9921 12.2968 15.0748 12.3739C15.1511 12.447 15.2079 12.5379 15.2402 12.6385C15.3504 12.9472 15.6866 14.0716 15.9567 14.7771C16.0449 14.9976 16.0173 15.207 15.9291 15.3889C15.8359 15.5716 15.715 15.7391 15.5709 15.8851C15.4276 16.0339 15.2843 16.1717 15.185 16.2874C15.0858 16.4087 15.0528 16.5024 15.0583 16.552C15.0895 16.6965 15.1454 16.8343 15.2236 16.9598C15.5922 17.5207 16.007 18.05 16.4638 18.5417C16.9527 18.9963 17.4802 19.4075 18.0402 19.7708C18.222 19.8811 18.3929 19.9472 18.4535 19.9527C18.5032 19.9582 18.6024 19.9086 18.7181 19.8094C18.8394 19.7157 18.9661 19.578 19.1094 19.4402C19.2551 19.2941 19.4224 19.1714 19.6055 19.0763C19.701 19.0272 19.8057 18.9985 19.9129 18.9919C20.0201 18.9852 20.1275 19.0009 20.2283 19.0378C20.9339 19.3134 22.0583 19.644 22.3724 19.7597C22.5378 19.8259 22.648 19.9363 22.7142 20.0906C22.7693 20.2339 22.7803 20.4047 22.7913 20.6417C22.8147 21.0027 22.7178 21.3612 22.5157 21.6613C22.2512 22.0471 21.7606 22.4276 20.8843 22.6977C19.9748 22.9843 18.8228 22.648 17.726 22.0913C16.696 21.5638 15.7505 20.8858 14.9205 20.0795C14.1157 19.2474 13.4395 18.2999 12.9142 17.2684C12.363 16.1771 12.0323 15.0196 12.3079 14.1102C12.4549 13.5018 12.7883 12.9545 13.2614 12.5448C13.5368 12.3296 13.8765 12.2132 14.226 12.2141V12.2086Z" fill="#17434E"/>
</g>
<defs>
<clipPath id="clip0_2_2">
<rect width="35" height="35" fill="white"/>
</clipPath>
</defs>
</svg>
