<svg width="229" height="274" viewBox="0 0 229 274" fill="none" xmlns="http://www.w3.org/2000/svg">
<path d="M73.3033 170.094C67.8162 171.14 64.268 174.045 63.1435 178.423C62.7363 179.973 62.7363 183.285 63.1241 184.796C64.0547 188.36 66.7304 190.782 71.4613 192.312C72.3144 192.602 74.5247 193.222 76.3473 193.687C80.8261 194.869 82.1834 195.586 82.6293 197.077C83.114 198.685 82.0864 200.351 80.0506 201.261C79.0424 201.707 78.5576 201.823 77.278 201.823C75.4166 201.823 74.4278 201.571 73.1869 200.719C72.0817 199.983 71.4031 198.82 71.2286 197.329L71.1123 196.322H62.1934L62.3097 198.123C62.5036 201.494 63.7639 204.225 66.0906 206.433C67.7193 207.963 68.9989 208.719 71.2674 209.474C76.3473 211.16 82.7069 210.443 86.7979 207.712C89.144 206.143 90.7533 203.799 91.4319 200.951C91.8584 199.13 91.8196 196.147 91.3349 194.404C90.7726 192.389 90.2879 191.556 88.8338 190.104C86.9143 188.186 83.9865 186.811 79.3138 185.668C73.2451 184.157 71.7521 183.305 71.7521 181.309C71.7521 179.702 73.0706 178.636 75.436 178.307C78.9842 177.803 81.8344 179.644 81.8344 182.414V182.956H90.8114L90.6757 181.542C90.3267 177.9 89.4154 175.808 87.2633 173.639C86.1775 172.535 85.4407 171.992 84.3549 171.469C81.9507 170.326 80.9619 170.133 77.181 170.074C75.3197 170.036 73.5747 170.055 73.3033 170.094Z" fill="#17434E"/>
<path d="M0.110189 209.591L4.51147 209.649L8.93214 209.687L8.97091 203.159L9.02908 196.612L13.5079 196.496L17.1724 203.043L20.8563 209.591L25.878 209.649C29.8528 209.687 30.861 209.649 30.7834 209.455C30.7446 209.319 28.8639 206.007 26.6148 202.094L22.5431 194.985L23.4738 194.385C25.9362 192.816 28.1078 189.697 28.7864 186.83C29.2129 185.029 29.1741 182.007 28.7088 180.167C27.6618 176.079 24.3463 172.554 20.4104 171.334C18.2 170.636 16.901 170.559 8.38925 170.559H0.0132446L0.110189 209.591ZM17.7541 179.663C20.4104 181.038 20.9339 184.757 18.7623 186.772C17.4632 187.973 16.9204 188.089 12.713 188.089H9.02908L8.97091 183.576L8.93214 179.062L12.8681 179.121C16.6295 179.179 16.8428 179.198 17.7541 179.663Z" fill="#17434E"/>
<path d="M34.9132 209.687H58.7616V201.164H43.8321V194.191H56.8227V185.862H43.8321V179.082H58.3738V170.559H34.9132V209.687Z" fill="#17434E"/>
<path d="M96.9577 209.687H120.806V201.164H105.877V194.191H118.867V185.862H105.877V179.082H120.224V170.559H96.9577V209.687Z" fill="#17434E"/>
<path d="M126.235 209.687L130.656 209.649L135.057 209.591L135.251 186.927L151.382 209.591L155.105 209.649L158.808 209.687V170.559H150.083L150.044 181.716L149.986 192.874L134.281 170.578L130.268 170.559H126.235V209.687Z" fill="#17434E"/>
<path d="M165.982 209.687H173.699C178.12 209.687 182.133 209.591 183.141 209.474C187.737 208.913 192.041 206.801 194.91 203.721C200.262 197.929 201.58 188.651 198.071 181.271C195.318 175.459 190.373 171.837 183.82 170.849C182.443 170.636 179.981 170.559 173.99 170.559H165.982V209.687ZM182.909 179.372C186.534 180.128 189.52 183.072 190.509 186.83C190.955 188.477 190.955 191.556 190.529 193.222C189.598 196.883 187.135 199.576 183.742 200.622C182.521 201.009 181.939 201.067 178.682 201.067H174.998L174.94 190.065L174.901 179.082H178.236C180.408 179.082 182.056 179.179 182.909 179.372Z" fill="#17434E"/>
<path d="M205.148 209.687H228.996V201.164H214.067V194.191H227.057V185.862H214.067V179.082H228.414V170.559H205.148V209.687Z" fill="#17434E"/>
<path d="M26.9374 215.305C25.0761 215.499 24.0678 215.808 22.5555 216.583C20.7911 217.513 19.3757 218.947 18.542 220.709C17.9216 221.988 17.844 222.336 17.7665 224.157C17.6889 225.959 17.7277 226.327 18.2124 227.799C18.5032 228.709 19.2206 230.24 19.7829 231.208C20.3646 232.177 20.8299 233.029 20.8299 233.106C20.8299 233.184 20.384 233.571 19.8605 233.978C17.4368 235.818 15.5173 238.608 14.9163 241.087C14.5479 242.695 14.5479 245.697 14.9163 247.169C15.9633 251.218 19.1237 254.24 23.2923 255.111C24.8434 255.441 28.6049 255.479 30.2529 255.189C32.0173 254.879 33.9174 254.24 35.4491 253.465L36.8257 252.748L38.7646 254.84L48.1682 254.724L42.0607 247.615L43.0884 245.562C43.6312 244.419 44.3099 242.656 44.5813 241.649C45.0854 239.673 45.512 236.225 45.2793 235.973C45.2017 235.896 43.5343 235.857 41.576 235.876L38.0085 235.935L37.7758 237.484C37.5625 239.073 36.9421 241.261 36.7288 241.261C36.5931 241.261 31.9204 235.586 31.8428 235.315C31.804 235.198 32.5796 234.598 33.5296 233.939C37.0584 231.576 38.9585 229.019 39.4626 225.978C40.0831 222.298 38.1636 218.404 34.8675 216.622C32.8704 215.557 29.6906 215.014 26.9374 215.305ZM30.7764 222.53C32.1724 223.595 32.2112 225.397 30.8734 226.85C30.0784 227.702 27.9069 229.252 27.4997 229.252C27.0925 229.252 25.619 226.056 25.522 224.951C25.3669 223.014 26.7241 221.813 28.8957 221.93C29.8264 221.988 30.2335 222.123 30.7764 222.53ZM28.663 243.063C30.3305 245.058 31.6489 246.782 31.6101 246.86C31.3968 247.189 29.012 247.712 27.616 247.731C25.7935 247.751 24.5913 247.324 23.6607 246.298C22.6331 245.174 22.478 243.412 23.2535 241.784C23.6801 240.874 25.2893 239.053 25.4832 239.266C25.5608 239.344 26.9956 241.068 28.663 243.063Z" fill="#17434E"/>
<path d="M61.5466 254.821H70.4655L70.5043 243.489L70.5624 232.138L86.6552 254.801L90.3973 254.821H94.1199V215.692H85.3949V226.869C85.3949 235.566 85.3368 237.988 85.1623 237.813C85.0265 237.678 81.4784 232.68 77.2322 226.675L69.5542 215.789L65.5407 215.731L61.5466 215.692V254.821Z" fill="#17434E"/>
<path d="M101.294 254.821H125.336V246.298H110.213V239.324H123.203V230.995H110.213L110.251 227.644L110.31 224.312L117.542 224.254L124.754 224.215L124.716 219.993L124.657 215.789L112.985 215.731L101.294 215.692V254.821Z" fill="#17434E"/>
<path d="M130.765 254.821H139.684V215.692H130.765V254.821Z" fill="#17434E"/>
<path d="M142.844 215.925C142.883 216.06 146.179 224.622 150.154 234.966C154.129 245.291 157.463 253.988 157.56 254.278L157.754 254.821H161.884C165.626 254.821 166.014 254.782 166.15 254.472C167.235 251.683 180.401 216.022 180.401 215.886C180.401 215.77 178.539 215.692 175.573 215.692H170.764L166.344 228.671C163.92 235.799 161.884 241.649 161.807 241.649C161.748 241.649 160.449 238.085 158.937 233.746C157.425 229.407 155.389 223.576 154.4 220.767L152.636 215.692H147.691C143.814 215.692 142.767 215.75 142.844 215.925Z" fill="#17434E"/>
<path d="M191.316 216.022C191.239 216.215 187.885 224.951 183.852 235.431C179.819 245.91 176.523 254.569 176.523 254.666C176.523 254.743 178.636 254.821 181.234 254.821H185.926L188.447 247.654H202.833L204.036 251.005C204.695 252.845 205.315 254.472 205.393 254.588C205.509 254.763 206.731 254.821 210.318 254.782L215.087 254.724L199.615 215.789L195.524 215.731C191.762 215.692 191.433 215.712 191.316 216.022ZM197.812 233.668L199.925 239.518H195.698C193.333 239.518 191.452 239.441 191.452 239.344C191.452 239.208 192.926 235.005 195.369 228.225C195.485 227.934 195.601 227.702 195.64 227.741C195.66 227.779 196.648 230.433 197.812 233.668Z" fill="#17434E"/>
<path d="M197.78 265.862C197.392 266.404 197.392 266.443 197.722 266.443C197.916 266.424 198.381 266.172 198.749 265.862L199.409 265.281H198.808C198.342 265.281 198.09 265.436 197.78 265.862Z" fill="#17434E"/>
<path d="M28.0302 266.811C26.324 267.586 25.5096 269.446 26.0719 271.325C26.5566 272.99 27.9526 273.998 29.7752 273.998C31.3651 273.998 32.5284 273.32 33.207 271.964C33.9438 270.55 33.5948 268.4 32.4508 267.373C31.4232 266.443 29.4068 266.172 28.0302 266.811ZM31.3457 268.651C31.908 269.213 32.0049 269.446 32.0049 270.201C32.0049 270.937 31.8886 271.208 31.3651 271.79C30.8028 272.409 30.6283 272.487 29.7752 272.487C28.9221 272.487 28.7476 272.409 28.1853 271.79C27.6618 271.208 27.5455 270.937 27.5455 270.201C27.5455 269.446 27.6424 269.213 28.2047 268.651C28.767 268.09 28.9996 267.993 29.7752 267.993C30.5507 267.993 30.7834 268.09 31.3457 268.651Z" fill="#17434E"/>
<path d="M37.5889 266.695C35.6888 267.586 34.7969 269.911 35.6694 271.77C36.348 273.242 37.5113 273.998 39.0818 273.998C40.6136 273.998 41.6024 273.378 42.3004 272.022C42.4943 271.615 42.6688 271.247 42.6688 271.189C42.6688 271.131 42.281 271.092 41.7963 271.092C41.3116 271.092 40.9238 271.189 40.9238 271.286C40.9238 271.402 40.7105 271.712 40.4391 271.964C39.838 272.584 38.5002 272.642 37.7634 272.061C37.046 271.499 36.7552 270.453 37.0266 269.523C37.3368 268.516 38.0542 267.993 39.1206 267.993C39.8768 267.993 40.0901 268.09 40.6136 268.671C41.1177 269.213 41.3891 269.349 41.9514 269.349C42.3392 269.349 42.6688 269.31 42.6688 269.252C42.6688 268.845 41.7769 267.528 41.1952 267.082C40.633 266.656 40.2452 266.54 39.2951 266.501C38.6359 266.482 37.8797 266.559 37.5889 266.695Z" fill="#17434E"/>
<path d="M54.2052 266.811C51.9561 267.819 51.2969 270.763 52.8868 272.642C53.9144 273.882 55.8145 274.346 57.2687 273.727C57.8697 273.475 59.1494 272.216 59.1494 271.867C59.1494 271.79 59.2075 271.576 59.2657 271.402C59.3627 271.15 59.2463 271.092 58.6647 271.092C58.1024 271.092 57.8309 271.228 57.3268 271.77C56.7645 272.351 56.5513 272.448 55.7951 272.448C55.0777 272.448 54.8063 272.351 54.3215 271.848C53.798 271.344 53.7205 271.112 53.7205 270.22C53.7205 269.329 53.798 269.097 54.3215 268.593C54.8063 268.09 55.0777 267.993 55.7951 267.993C56.5513 267.993 56.7645 268.09 57.3268 268.671C57.8309 269.213 58.1024 269.349 58.6647 269.349C59.2463 269.349 59.3627 269.291 59.2657 269.039C59.2075 268.865 59.1494 268.651 59.1494 268.574C59.1494 268.225 57.8697 266.966 57.2687 266.714C56.3962 266.346 55.1359 266.385 54.2052 266.811Z" fill="#17434E"/>
<path d="M88.8338 266.656C87.3408 267.257 86.4877 268.555 86.4877 270.22C86.4877 271.267 86.9724 272.545 87.5735 273.068C89.2022 274.501 91.9942 274.211 93.1769 272.506C93.8943 271.421 93.8361 271.092 92.886 271.092C92.4595 271.092 92.1105 271.17 92.1105 271.266C92.1105 271.344 91.8778 271.654 91.6064 271.944C90.8502 272.681 89.6287 272.661 88.7756 271.886C88.1939 271.363 88.1358 271.208 88.1358 270.22C88.1358 269.233 88.1939 269.078 88.7756 268.555C89.6287 267.78 90.8502 267.76 91.6064 268.497C91.8778 268.787 92.1105 269.097 92.1105 269.174C92.1105 269.271 92.4595 269.349 92.886 269.349C93.8555 269.349 93.9137 268.981 93.0993 267.857C92.2268 266.656 90.2492 266.095 88.8338 266.656Z" fill="#17434E"/>
<path d="M97.7527 266.656C96.2403 267.257 95.4066 268.516 95.4066 270.22C95.4066 272.332 96.725 273.785 98.819 273.959C102.348 274.25 104.481 270.434 102.251 267.78C101.96 267.431 101.378 267.005 100.932 266.811C100.099 266.424 98.5088 266.346 97.7527 266.656ZM100.816 268.574C101.727 269.504 101.727 270.937 100.816 271.848C99.3619 273.3 96.9577 272.274 96.9577 270.182C96.9577 269.446 97.0547 269.213 97.6169 268.651C98.1986 268.07 98.3925 267.993 99.2456 267.993C100.079 267.993 100.312 268.09 100.816 268.574Z" fill="#17434E"/>
<path d="M114.873 266.714C114.059 267.063 113.632 267.722 113.632 268.593C113.632 269.659 114.214 270.24 115.746 270.705C117.142 271.112 117.626 271.48 117.432 271.964C117.142 272.739 115.455 272.661 115.241 271.867C115.164 271.557 114.97 271.48 114.272 271.48C113.419 271.48 113.399 271.499 113.535 272.003C113.729 272.855 114.194 273.436 114.892 273.727C116.308 274.308 118.305 273.862 118.809 272.836C118.945 272.564 119.061 272.022 119.061 271.635C119.061 270.608 118.441 270.007 116.851 269.484C115.338 269 114.854 268.516 115.455 268.07C116.017 267.664 116.502 267.741 117.045 268.283C117.374 268.613 117.743 268.768 118.227 268.768C118.906 268.768 118.906 268.748 118.79 268.148C118.634 267.373 118.344 267.024 117.568 266.695C116.773 266.366 115.649 266.385 114.873 266.714Z" fill="#17434E"/>
<path d="M143.336 266.85C140.893 268.07 140.68 271.867 142.948 273.359C145.488 275.044 149.114 273.204 149.114 270.22C149.114 267.412 145.934 265.572 143.336 266.85ZM146.748 268.574C147.718 269.543 147.737 270.898 146.768 271.848C145.837 272.777 144.402 272.739 143.472 271.751C143.103 271.344 143.006 271.053 143.006 270.182C143.006 269.233 143.064 269.058 143.646 268.555C144.15 268.09 144.441 267.993 145.217 267.993C146.012 267.993 146.264 268.09 146.748 268.574Z" fill="#17434E"/>
<path d="M215.075 266.85C212.632 268.07 212.419 271.867 214.687 273.378C215.753 274.075 217.382 274.191 218.448 273.649C219.379 273.184 219.786 272.739 220.174 271.809L220.465 271.092H219.592C219.108 271.092 218.72 271.189 218.72 271.286C218.72 271.402 218.487 271.712 218.216 271.964C217.595 272.545 216.335 272.622 215.656 272.138C215.114 271.77 214.648 270.879 214.648 270.22C214.648 269.562 215.114 268.671 215.656 268.303C216.335 267.819 217.595 267.896 218.216 268.477C218.487 268.729 218.72 269.039 218.72 269.155C218.72 269.252 219.108 269.349 219.592 269.349H220.465L220.174 268.632C219.786 267.702 219.379 267.257 218.487 266.811C217.518 266.327 216.122 266.346 215.075 266.85Z" fill="#17434E"/>
<path d="M3.71652 267.102C3.60019 267.354 2.99913 268.923 2.3593 270.589C1.70008 272.235 1.17658 273.63 1.17658 273.688C1.17658 273.746 1.52558 273.804 1.95213 273.804C2.65013 273.804 2.74708 273.746 2.99913 273.126L3.28997 272.448H6.14013L6.39219 273.126C6.62486 273.765 6.68302 273.804 7.49736 273.804H8.35047L8.02086 272.971C7.84636 272.526 7.18713 270.937 6.58608 269.446L5.46152 266.734L4.68597 266.676C3.98797 266.618 3.87163 266.676 3.71652 267.102ZM5.20947 269.93L5.61663 271.092H3.71652L4.14308 269.93C4.37575 269.291 4.6278 268.768 4.70536 268.768C4.76352 268.768 4.99619 269.291 5.20947 269.93Z" fill="#17434E"/>
<path d="M10.0955 273.804H12.0344C13.6049 273.804 14.1477 273.727 14.7488 273.417C17.2112 272.158 17.2112 268.283 14.7488 267.024C14.1477 266.714 13.6049 266.637 12.0344 266.637H10.0955V273.804ZM14.3998 268.748C14.8264 269.213 14.9427 269.543 14.9427 270.22C14.9427 270.898 14.8264 271.228 14.3998 271.693C13.9345 272.216 13.6824 272.332 12.7517 272.409L11.6466 272.487V267.954L12.7517 268.032C13.6824 268.109 13.9345 268.225 14.3998 268.748Z" fill="#17434E"/>
<path d="M20.4879 273.707L21.3022 273.765C21.7482 273.804 22.1166 273.785 22.1166 273.727C22.1166 273.688 22.7176 272.061 23.4544 270.124L24.7922 266.618L23.9197 266.676L23.0279 266.734L22.2329 269C21.787 270.24 21.3798 271.305 21.3216 271.383C21.2441 271.441 20.8175 270.414 20.3522 269.116L19.4991 266.734L18.5878 266.676L17.6959 266.618L20.4879 273.707Z" fill="#17434E"/>
<path d="M46.469 266.792C46.4302 266.869 45.771 268.477 45.0342 270.375L43.677 273.804H44.5301C45.3057 273.804 45.3832 273.765 45.5965 273.126L45.8486 272.448H48.6987L48.9896 273.126C49.2416 273.746 49.3386 273.804 50.1141 273.804H50.9479L48.0395 266.637H47.3027C46.8956 266.637 46.5272 266.695 46.469 266.792ZM47.8262 269.93L48.2334 271.092H47.264C46.4302 271.092 46.3333 271.053 46.4496 270.743C46.5272 270.569 46.7211 270.046 46.8762 269.581C47.0313 269.136 47.2252 268.768 47.2834 268.768C47.3609 268.768 47.5936 269.291 47.8262 269.93Z" fill="#17434E"/>
<path d="M61.2822 273.804H63.0271V266.637H61.2822V273.804Z" fill="#17434E"/>
<path d="M66.2457 269.969C65.5089 271.809 64.8885 273.436 64.8303 273.552C64.7528 273.727 64.9854 273.804 65.5865 273.804C66.4008 273.804 66.4784 273.765 66.6335 273.165L66.8274 272.545L69.7745 272.429L70.0072 273.126C70.2204 273.765 70.2786 273.804 71.0929 273.804C71.5583 273.804 71.946 273.746 71.9267 273.649C71.9267 273.572 71.2868 271.983 70.5306 270.124L69.1347 266.734L67.5448 266.618L66.2457 269.969ZM69.1153 270.647C69.251 271.073 69.1928 271.092 68.3785 271.092C67.8938 271.092 67.4866 271.015 67.4866 270.918C67.4866 270.821 67.6805 270.24 67.9131 269.639L68.3397 268.535L68.6499 269.388C68.8438 269.833 69.0571 270.414 69.1153 270.647Z" fill="#17434E"/>
<path d="M76.7933 273.804H81.2527V272.448H78.3444V270.898H80.8649V269.562L78.4413 269.446L78.3831 268.71L78.325 267.993H81.2527V266.637H76.7933V273.804Z" fill="#17434E"/>
<path d="M105.295 273.804H106.827L106.943 269.581L108.455 271.693C109.89 273.668 110.026 273.804 110.646 273.804H111.305V266.637H109.774L109.657 270.763L108.203 268.71C106.807 266.734 106.73 266.656 106.032 266.637H105.295V273.804Z" fill="#17434E"/>
<path d="M121.233 269.523C121.291 272.293 121.31 272.448 121.775 272.932C122.57 273.785 123.268 274.056 124.432 273.959C125.634 273.862 126.371 273.397 126.855 272.429C127.146 271.906 127.204 271.266 127.204 269.194V266.637H125.653V268.961C125.653 270.317 125.556 271.48 125.421 271.77C125.052 272.603 123.695 272.758 123.094 272.022C122.803 271.693 122.745 271.228 122.745 269.136V266.637H121.174L121.233 269.523Z" fill="#17434E"/>
<path d="M129.531 273.804H133.99V272.448H131.276V266.637H129.531V273.804Z" fill="#17434E"/>
<path d="M134.378 267.993H136.511V273.804H138.062V267.993H140.001V266.637H134.378V267.993Z" fill="#17434E"/>
<path d="M151.247 273.804H152.798V272.642C152.798 271.499 152.817 271.48 153.341 271.48C153.787 271.48 153.961 271.673 154.504 272.642C155.144 273.804 155.144 273.804 156.016 273.804H156.889L156.559 273.165C156.385 272.836 156.016 272.216 155.784 271.828C155.318 271.112 155.318 271.092 155.706 270.898C156.598 270.434 156.928 268.865 156.385 267.799C155.919 266.889 155.202 266.637 153.089 266.637H151.247V273.804ZM154.698 268.303C155.609 268.942 154.969 269.93 153.631 269.93H152.798V267.993H153.535C153.942 267.993 154.465 268.128 154.698 268.303Z" fill="#17434E"/>
<path d="M159.002 273.804H160.553V266.637H159.002V273.804Z" fill="#17434E"/>
<path d="M164.101 269.213C163.539 270.608 162.919 272.235 162.705 272.777L162.298 273.804H163.151C163.966 273.804 164.024 273.765 164.237 273.126L164.47 272.429L167.417 272.545L167.611 273.165C167.766 273.765 167.844 273.804 168.658 273.804C169.395 273.804 169.492 273.746 169.395 273.455C169.317 273.281 168.677 271.673 167.96 269.872L166.661 266.637H165.11L164.101 269.213ZM166.409 269.891C166.603 270.395 166.758 270.86 166.758 270.937C166.758 271.034 166.37 271.092 165.885 271.092C165.401 271.092 165.013 271.053 165.013 270.995C165.013 270.685 165.846 268.768 165.943 268.865C166.002 268.923 166.215 269.388 166.409 269.891Z" fill="#17434E"/>
<path d="M177.189 269.388C177.131 272.08 177.111 272.158 176.665 272.371C176.006 272.7 175.425 272.429 175.192 271.712C175.037 271.15 174.94 271.092 174.281 271.092C173.602 271.092 173.544 271.131 173.544 271.615C173.544 272.351 174.184 273.339 174.882 273.707C175.696 274.114 177.014 274.075 177.693 273.63C178.662 272.99 178.759 272.603 178.779 269.484V266.637H177.247L177.189 269.388Z" fill="#17434E"/>
<path d="M181.338 269.523C181.396 272.293 181.416 272.448 181.881 272.932C182.676 273.785 183.374 274.056 184.537 273.959C185.739 273.862 186.476 273.397 186.961 272.429C187.252 271.906 187.31 271.266 187.31 269.194V266.637H185.759V268.961C185.759 270.317 185.662 271.48 185.526 271.77C185.158 272.603 183.801 272.758 183.199 272.022C182.909 271.693 182.85 271.228 182.85 269.136V266.637H181.28L181.338 269.523Z" fill="#17434E"/>
<path d="M189.637 273.804H191.382V272.622C191.382 271.46 191.382 271.46 191.905 271.518C192.312 271.557 192.564 271.828 193.068 272.681C193.708 273.785 193.747 273.804 194.6 273.804H195.492L194.949 272.874C194.658 272.371 194.309 271.77 194.154 271.557C193.922 271.189 193.941 271.112 194.368 270.84C194.62 270.666 194.949 270.22 195.066 269.833C195.395 268.806 195.162 267.935 194.368 267.237C193.708 266.656 193.65 266.637 191.672 266.637H189.637V273.804ZM193.32 268.38C193.786 268.845 193.786 268.942 193.398 269.504C193.165 269.833 192.913 269.93 192.235 269.93H191.382V267.993H192.157C192.681 267.993 193.068 268.128 193.32 268.38Z" fill="#17434E"/>
<path d="M200.882 273.804H202.705C205.303 273.804 206.175 273.378 206.912 271.77C207.765 269.911 206.893 267.528 205.09 266.85C204.779 266.734 203.713 266.637 202.705 266.637H200.882V273.804ZM204.566 268.342C205.981 269.039 206.059 271.247 204.702 272.061C204.353 272.293 203.732 272.448 203.267 272.448H202.433V267.993H203.17C203.558 267.993 204.198 268.148 204.566 268.342Z" fill="#17434E"/>
<path d="M209.413 273.804H210.964V266.637H209.413V273.804Z" fill="#17434E"/>
<path d="M223.102 269.581C222.462 271.208 221.822 272.836 221.686 273.165L221.434 273.804H222.287C223.102 273.804 223.16 273.765 223.373 273.126L223.606 272.429L226.553 272.545L226.747 273.165C226.902 273.765 226.98 273.804 227.794 273.804C228.531 273.804 228.628 273.765 228.531 273.455C228.453 273.281 227.813 271.673 227.115 269.872L225.816 266.637H224.246L223.102 269.581ZM225.545 269.891C225.739 270.395 225.894 270.86 225.894 270.937C225.894 271.034 225.506 271.092 225.021 271.092C224.537 271.092 224.149 271.053 224.149 270.995C224.149 270.685 224.983 268.768 225.079 268.865C225.138 268.923 225.351 269.388 225.545 269.891Z" fill="#17434E"/>
<path d="M197.198 273.804H198.749V266.637H197.198V273.804Z" fill="#17434E"/>
<path fill-rule="evenodd" clip-rule="evenodd" d="M51.7208 140.682L91.1422 117.652C92.0087 119.094 94.4484 122.837 97.2754 126.27C100.809 130.561 120.692 146.814 141.351 143.086C162.01 139.357 168.056 133.21 176.421 123.334C183.112 115.433 184.987 103.246 185.088 98.1397V9.7592C185.313 1.31409 177.891 1.27032 174.633 3.05069C165.98 8.00642 156.012 13.8492 152.321 16.0127L152.316 16.0157L152.307 16.0208L152.296 16.0276L152.288 16.0319L152.281 16.0363L152.264 16.0459L152.253 16.0526L152.249 16.0549L152.237 16.0621L152.23 16.066L152.226 16.0684C151.435 16.5318 150.954 16.814 150.863 16.8656C150.36 17.1534 140.405 22.9532 140.405 22.9532V11.1448C140.405 2.22471 136.009 0.0158373 130.32 0.0158126C128.423 0.0158044 125.99 0.0128609 123.226 0.00951598C114.656 -0.000852886 102.899 -0.0150788 94.0025 0.0423195C79.2941 0.137212 70.0906 2.38898 58.1321 11.876C47.1641 20.5773 42.5576 34.2506 41.9062 41.131V134.695C41.9062 140.252 47.779 142.474 51.7208 140.682ZM174.727 14.4585L140.512 34.3225V132.831C144.884 132.462 155.638 129.946 163.67 122.829C171.702 115.712 174.93 104.329 175.54 99.5265V15.5868C175.52 15.0653 175.328 14.1096 174.727 14.4585ZM97.5307 41.2427C96.8356 46.3884 97.5307 66.9724 97.5307 66.9724C102.758 65.8833 108.958 63.9539 113.05 61.527C124.903 54.4975 128.95 43.5759 130.469 38.8401C131.988 34.1044 131.02 9.5231 131.02 9.5231C121.921 10.3221 114.825 14.8825 108.64 20.0895C100.945 26.5664 98.3019 35.5341 97.5307 41.2427ZM97.5332 75.4027C97.5332 75.4027 96.8381 95.9867 97.5332 101.132C98.3044 106.841 100.948 115.809 108.642 122.286C114.828 127.493 121.924 132.053 131.023 132.852C131.023 132.852 131.991 108.271 130.472 103.535C128.953 98.7992 124.905 87.8776 113.053 80.8481C108.96 78.4212 102.761 76.4918 97.5332 75.4027ZM87.7189 9.42575C94.32 8.98909 105.392 9.13831 105.392 9.13831L99.1256 15.1004C89.693 23.3237 86.6867 36.0456 86.3626 41.3787V109.47L53.6328 128.434C52.8298 128.831 52.4611 129.046 52.2918 128.941C52.148 128.852 52.148 128.531 52.148 127.894V41.3787C52.4402 38.373 54.5767 30.5106 60.7849 23.1068C66.9931 15.7029 76.5366 10.1654 87.7189 9.42575Z" fill="url(#paint0_linear_5_137)"/>
<defs>
<linearGradient id="paint0_linear_5_137" x1="113.499" y1="0" x2="113.499" y2="143.637" gradientUnits="userSpaceOnUse">
<stop stop-color="#E08161"/>
<stop offset="1" stop-color="#C95B38"/>
</linearGradient>
</defs>
</svg>
