<svg width="163" height="195" fill="none" xmlns="http://www.w3.org/2000/svg"><path d="M52.351 120.883c-3.9.744-6.42 2.809-7.22 5.92-.29 1.101-.29 3.455-.014 4.529.662 2.533 2.563 4.254 5.925 5.341.607.207 2.177.647 3.473.978 3.183.84 4.147 1.349 4.464 2.409.345 1.142-.386 2.326-1.832 2.973-.717.317-1.061.4-1.97.4-1.324 0-2.026-.179-2.908-.785-.786-.523-1.268-1.349-1.392-2.409l-.083-.716h-6.338l.082 1.28c.138 2.396 1.034 4.337 2.688 5.906 1.157 1.088 2.066 1.624 3.679 2.161 3.61 1.198 8.13.689 11.037-1.252 1.667-1.115 2.81-2.781 3.293-4.805.303-1.294.276-3.414-.069-4.653-.4-1.432-.744-2.024-1.777-3.056-1.364-1.363-3.445-2.34-6.766-3.153-4.313-1.073-5.374-1.679-5.374-3.097 0-1.143.937-1.9 2.618-2.134 2.522-.358 4.547.95 4.547 2.919v.385h6.38l-.096-1.005c-.248-2.588-.896-4.075-2.425-5.616-.772-.785-1.296-1.171-2.067-1.542-1.709-.813-2.412-.95-5.099-.992-1.322-.027-2.563-.013-2.756.014ZM.334 148.953l3.128.041 3.142.028.027-4.639.042-4.654 3.183-.082 2.604 4.653 2.618 4.653 3.569.041c2.825.028 3.541 0 3.486-.137-.027-.097-1.364-2.451-2.962-5.232l-2.894-5.052.661-.427c1.75-1.115 3.294-3.331 3.776-5.369.303-1.28.276-3.427-.055-4.735-.744-2.905-3.1-5.41-5.898-6.278-1.57-.495-2.494-.55-8.543-.55H.265l.07 27.739Zm12.54-21.269c1.887.977 2.26 3.62.716 5.052-.923.854-1.31.936-4.3.936H6.674l-.042-3.207-.027-3.208 2.797.041c2.673.042 2.825.055 3.472.386ZM25.068 149.022h16.949v-6.057h-10.61v-4.956h9.232v-5.92h-9.232v-4.818H41.74v-6.057H25.068v27.808ZM69.162 149.022h16.949v-6.057H75.5v-4.956h9.232v-5.92h-9.232v-4.818h10.197v-6.057H69.162v27.808ZM89.97 149.022l3.14-.028 3.129-.041.138-16.107 11.464 16.107 2.646.041 2.632.028v-27.808h-6.201l-.028 7.929-.041 7.93-11.161-15.846-2.853-.013H89.97v27.808ZM118.217 149.022h5.484c3.142 0 5.994-.069 6.711-.152 3.265-.399 6.324-1.899 8.364-4.088 3.803-4.116 4.74-10.711 2.246-15.956-1.957-4.129-5.471-6.704-10.128-7.406-.978-.151-2.728-.206-6.986-.206h-5.691v27.808Zm12.029-21.545c2.577.537 4.699 2.63 5.402 5.3.317 1.171.317 3.359.014 4.543-.662 2.602-2.412 4.516-4.823 5.259-.868.275-1.282.317-3.597.317h-2.618l-.041-7.82-.028-7.805h2.371c1.543 0 2.714.069 3.32.206ZM146.051 149.022H163v-6.057h-10.61v-4.956h9.232v-5.92h-9.232v-4.818h10.197v-6.057h-16.536v27.808ZM8.74 153.014c-1.323.138-2.04.358-3.115.909-1.253.66-2.26 1.679-2.852 2.932-.44.908-.496 1.156-.551 2.45-.055 1.281-.028 1.542.317 2.588.207.647.716 1.735 1.116 2.423.413.689.744 1.294.744 1.349 0 .055-.317.331-.689.62-1.722 1.308-3.086 3.29-3.514 5.052-.261 1.143-.261 3.277 0 4.323.744 2.877 2.99 5.025 5.953 5.644 1.102.234 3.776.262 4.947.055a13.844 13.844 0 0 0 3.693-1.225l.978-.509 1.378 1.486 6.683-.082-4.34-5.053.73-1.459c.386-.812.868-2.065 1.06-2.781.36-1.404.662-3.854.497-4.033-.055-.055-1.24-.083-2.632-.069l-2.535.041-.166 1.102c-.151 1.128-.592 2.684-.744 2.684-.096 0-3.417-4.034-3.472-4.226-.028-.083.523-.51 1.199-.978 2.507-1.679 3.858-3.496 4.216-5.658.441-2.615-.923-5.382-3.266-6.649-1.419-.757-3.679-1.142-5.635-.936Zm2.728 5.135c.992.757 1.02 2.037.069 3.07-.565.606-2.108 1.707-2.398 1.707-.29 0-1.336-2.272-1.405-3.056-.11-1.377.854-2.23 2.397-2.148.662.041.951.138 1.337.427Zm-1.502 14.592c1.185 1.418 2.122 2.643 2.094 2.699-.151.234-1.846.605-2.838.619-1.295.014-2.15-.289-2.811-1.019-.73-.798-.84-2.051-.29-3.207.304-.647 1.447-1.941 1.585-1.79.055.055 1.075 1.28 2.26 2.698ZM33.336 181.098h6.338l.028-8.054.041-8.067 11.437 16.107 2.66.014h2.645v-27.809h-6.2v7.944c0 6.181-.042 7.902-.166 7.778-.096-.097-2.618-3.648-5.636-7.916l-5.456-7.737-2.853-.041-2.838-.028v27.809ZM61.584 181.098H78.67v-6.058H67.922v-4.956h9.232v-5.919h-9.232l.028-2.382.041-2.368 5.14-.041 5.126-.027-.028-3.001-.041-2.988-8.295-.041-8.31-.028v27.809ZM82.528 181.098h6.339v-27.809h-6.339v27.809ZM91.113 153.455c.027.096 2.37 6.181 5.195 13.532 2.824 7.337 5.195 13.519 5.263 13.725l.138.386h2.935c2.66 0 2.935-.028 3.032-.248.771-1.983 10.128-27.327 10.128-27.423 0-.083-1.323-.138-3.431-.138h-3.418l-3.141 9.224c-1.723 5.066-3.17 9.223-3.225 9.223-.041 0-.964-2.533-2.039-5.616a4206.965 4206.965 0 0 0-3.225-9.224l-1.254-3.607h-3.513c-2.756 0-3.5.042-3.445.166ZM125.561 153.523c-.055.138-2.439 6.347-5.305 13.794-2.866 7.448-5.208 13.602-5.208 13.67 0 .055 1.502.111 3.348.111h3.335l1.791-5.094h10.224l.855 2.382c.468 1.307.909 2.464.964 2.546.083.124.951.166 3.5.138l3.39-.041-10.996-27.671-2.908-.041c-2.673-.028-2.907-.014-2.99.206Zm4.616 12.542 1.502 4.157h-3.003c-1.682 0-3.018-.055-3.018-.124 0-.096 1.047-3.084 2.783-7.902.083-.206.166-.371.193-.344.014.028.717 1.914 1.543 4.213ZM140.815 188.944c-.275.386-.275.413-.041.413.138-.013.468-.192.73-.413l.469-.413h-.428c-.33 0-.509.111-.73.413ZM20.177 189.619c-1.213.551-1.792 1.872-1.392 3.208.344 1.183 1.336 1.899 2.632 1.899 1.13 0 1.956-.482 2.439-1.445.523-1.005.275-2.533-.538-3.263-.73-.661-2.163-.853-3.142-.399Zm2.356 1.308c.4.399.468.564.468 1.101 0 .523-.082.716-.454 1.129-.4.44-.524.495-1.13.495-.607 0-.73-.055-1.13-.495-.372-.413-.455-.606-.455-1.129 0-.537.069-.702.468-1.101.4-.399.566-.468 1.117-.468.55 0 .716.069 1.116.468ZM26.97 189.536c-1.35.634-1.985 2.286-1.364 3.607.482 1.046 1.309 1.583 2.425 1.583 1.088 0 1.791-.44 2.287-1.404.138-.289.262-.551.262-.592 0-.041-.276-.069-.62-.069-.345 0-.62.069-.62.138 0 .083-.152.303-.345.482-.427.44-1.378.482-1.901.069-.51-.4-.717-1.143-.524-1.804.22-.716.73-1.087 1.488-1.087.538 0 .69.069 1.061.482.359.385.552.481.951.481.276 0 .51-.027.51-.068 0-.29-.634-1.226-1.047-1.542-.4-.303-.675-.386-1.35-.413-.47-.014-1.007.041-1.213.137ZM38.779 189.619c-1.599.716-2.067 2.808-.937 4.144.73.881 2.08 1.211 3.114.771.427-.179 1.336-1.074 1.336-1.322 0-.055.042-.207.083-.33.069-.179-.014-.221-.427-.221-.4 0-.593.097-.95.482-.4.413-.552.482-1.09.482-.51 0-.702-.069-1.047-.427-.372-.358-.427-.523-.427-1.156 0-.633.055-.799.427-1.157.345-.357.538-.426 1.048-.426.537 0 .689.069 1.088.482.358.385.551.481.951.481.413 0 .496-.041.427-.22a1.614 1.614 0 0 1-.083-.33c0-.248-.909-1.143-1.336-1.322-.62-.261-1.516-.234-2.177.069ZM63.389 189.509c-1.061.427-1.668 1.349-1.668 2.533 0 .743.345 1.652.772 2.023 1.157 1.019 3.142.813 3.982-.399.51-.771.469-1.005-.206-1.005-.303 0-.552.055-.552.124 0 .055-.165.276-.358.482-.537.523-1.405.509-2.012-.041-.413-.372-.454-.482-.454-1.184s.041-.812.454-1.184c.607-.551 1.475-.565 2.012-.041.193.206.358.426.358.481 0 .069.249.124.552.124.689 0 .73-.261.151-1.06-.62-.853-2.025-1.252-3.031-.853ZM69.727 189.509c-1.075.427-1.667 1.321-1.667 2.533 0 1.5.937 2.533 2.425 2.657 2.508.206 4.024-2.506 2.439-4.392-.207-.248-.62-.55-.937-.688-.593-.275-1.722-.33-2.26-.11Zm2.177 1.363c.648.66.648 1.679 0 2.326-1.033 1.033-2.742.303-2.742-1.184 0-.523.07-.688.469-1.087.413-.413.551-.468 1.157-.468.593 0 .758.069 1.116.413ZM81.894 189.55c-.578.248-.881.716-.881 1.335 0 .758.413 1.171 1.501 1.501.993.289 1.337.551 1.2.895-.207.55-1.406.495-1.558-.069-.055-.22-.193-.275-.689-.275-.606 0-.62.013-.523.371.138.606.468 1.019.964 1.226 1.006.413 2.425.096 2.784-.634.096-.192.179-.578.179-.853 0-.73-.441-1.157-1.571-1.528-1.075-.344-1.42-.689-.992-1.005.4-.289.744-.234 1.13.151.234.234.496.344.84.344.483 0 .483-.013.4-.44-.11-.551-.317-.799-.868-1.033-.565-.234-1.364-.22-1.916.014ZM102.123 189.646c-1.737.868-1.888 3.566-.276 4.626 1.805 1.198 4.382-.11 4.382-2.23 0-1.996-2.26-3.304-4.106-2.396Zm2.425 1.226c.689.688.703 1.652.014 2.326-.662.661-1.682.633-2.343-.069-.262-.289-.331-.495-.331-1.115 0-.674.042-.798.455-1.156.358-.33.565-.399 1.116-.399.565 0 .744.069 1.089.413ZM153.106 189.646c-1.736.868-1.887 3.566-.275 4.64.758.495 1.915.578 2.673.192.661-.33.951-.647 1.226-1.307l.207-.51h-.62c-.345 0-.62.069-.62.138 0 .083-.165.303-.358.482-.441.413-1.337.468-1.819.124-.386-.262-.717-.895-.717-1.363 0-.468.331-1.101.717-1.363.482-.344 1.378-.289 1.819.124.193.179.358.399.358.482 0 .069.275.137.62.137h.62l-.207-.509c-.275-.661-.565-.977-1.198-1.294-.689-.344-1.682-.33-2.426.027ZM2.897 189.825c-.083.179-.51 1.294-.964 2.478-.469 1.171-.841 2.162-.841 2.203 0 .041.248.083.551.083.496 0 .565-.042.744-.482l.207-.482H4.62l.179.482c.165.454.206.482.785.482h.606l-.234-.592c-.124-.317-.592-1.446-1.02-2.506l-.799-1.927-.55-.041c-.497-.042-.58 0-.69.302Zm1.061 2.01.29.826h-1.35l.302-.826c.166-.454.345-.826.4-.826.041 0 .207.372.358.826ZM7.43 194.589h1.378c1.117 0 1.502-.055 1.93-.276 1.75-.895 1.75-3.648 0-4.543-.428-.22-.813-.275-1.93-.275H7.431v5.094Zm3.06-3.593c.303.33.385.564.385 1.046 0 .482-.082.716-.385 1.046-.331.372-.51.454-1.172.509l-.785.055v-3.221l.785.055c.662.055.84.138 1.172.51ZM14.816 194.52l.579.041c.317.028.579.014.579-.027 0-.028.427-1.184.95-2.561l.951-2.492-.62.042-.634.041-.565 1.611c-.317.881-.606 1.638-.647 1.693-.055.041-.358-.689-.69-1.611l-.605-1.693-.648-.041-.634-.042 1.984 5.039ZM33.28 189.605c-.027.055-.495 1.198-1.019 2.547l-.965 2.437h.607c.55 0 .606-.028.758-.482l.179-.482h2.025l.207.482c.18.44.248.482.8.482h.592l-2.067-5.094h-.524c-.29 0-.551.041-.592.11Zm.965 2.23.29.826h-.69c-.592 0-.66-.027-.578-.247.055-.124.193-.496.303-.826.11-.317.248-.579.29-.579.055 0 .22.372.385.826ZM43.808 194.589h1.24v-5.094h-1.24v5.094ZM47.336 191.863c-.524 1.308-.965 2.464-1.006 2.547-.055.124.11.179.537.179.579 0 .634-.028.744-.455l.138-.44 2.095-.083.165.496c.151.454.193.482.772.482.33 0 .606-.042.592-.111 0-.055-.455-1.183-.992-2.505l-.992-2.409-1.13-.083-.923 2.382Zm2.04.482c.096.303.054.316-.525.316-.344 0-.633-.055-.633-.124 0-.068.137-.481.303-.908l.303-.785.22.606c.138.316.29.729.331.895ZM54.832 194.589H58v-.964h-2.067v-1.101h1.791v-.95l-1.722-.083-.041-.523-.042-.509h2.081v-.964h-3.17v5.094ZM75.087 194.589h1.089l.083-3.001 1.075 1.5c1.02 1.404 1.116 1.501 1.556 1.501h.469v-5.094h-1.088l-.083 2.932-1.034-1.459c-.992-1.404-1.047-1.459-1.543-1.473h-.524v5.094ZM86.414 191.546c.041 1.969.055 2.079.386 2.423.565.606 1.06.799 1.888.73.854-.069 1.378-.4 1.722-1.088.207-.372.248-.826.248-2.299v-1.817h-1.102v1.652c0 .964-.07 1.79-.166 1.996-.261.592-1.226.702-1.653.179-.207-.234-.248-.564-.248-2.051v-1.776h-1.116l.041 2.051ZM92.312 194.589h3.169v-.964h-1.93v-4.13h-1.24v5.094ZM95.757 190.459h1.515v4.13h1.103v-4.13h1.378v-.964h-3.996v.964ZM107.745 194.589h1.102v-.826c0-.813.014-.826.386-.826.317 0 .441.137.827.826.454.826.454.826 1.074.826h.62l-.234-.455a27.89 27.89 0 0 0-.551-.95c-.331-.509-.331-.523-.055-.66.634-.331.868-1.446.482-2.203-.331-.647-.84-.826-2.342-.826h-1.309v5.094Zm2.452-3.91c.648.454.193 1.156-.758 1.156h-.592v-1.376h.524c.289 0 .661.096.826.22ZM113.256 194.589h1.103v-5.094h-1.103v5.094ZM116.88 191.326c-.399.991-.84 2.148-.992 2.533l-.289.73h.606c.579 0 .62-.028.772-.482l.165-.496 2.095.083.137.44c.111.427.166.455.745.455.523 0 .592-.042.523-.248-.055-.124-.51-1.267-1.02-2.547l-.923-2.299h-1.102l-.717 1.831Zm1.64.482c.138.358.248.688.248.743 0 .069-.275.11-.62.11-.344 0-.62-.027-.62-.069 0-.22.592-1.583.661-1.514.042.041.193.372.331.73ZM126.181 191.45c-.041 1.913-.055 1.968-.372 2.12-.468.234-.881.041-1.047-.468-.11-.399-.179-.441-.647-.441-.483 0-.524.028-.524.372 0 .523.455 1.225.951 1.487.578.289 1.515.261 1.998-.055.689-.455.758-.73.771-2.946v-2.024h-1.088l-.042 1.955ZM129.13 191.546c.042 1.969.055 2.079.386 2.423.565.606 1.061.799 1.888.73.854-.069 1.378-.4 1.722-1.088.207-.372.248-.826.248-2.299v-1.817h-1.102v1.652c0 .964-.069 1.79-.165 1.996-.262.592-1.227.702-1.654.179-.207-.234-.248-.564-.248-2.051v-1.776h-1.116l.041 2.051ZM135.028 194.589h1.24v-.84c0-.826 0-.826.372-.785.289.028.469.22.827.826.454.785.482.799 1.088.799h.634l-.386-.661c-.206-.358-.454-.785-.565-.936-.165-.262-.151-.317.152-.51.179-.124.413-.44.496-.716.234-.729.069-1.349-.496-1.844-.469-.413-.51-.427-1.915-.427h-1.447v5.094Zm2.618-3.855c.331.33.331.399.055.798-.165.234-.344.303-.827.303h-.606v-1.376h.551c.372 0 .648.096.827.275ZM143.02 194.589h1.295c1.847 0 2.467-.303 2.99-1.446.607-1.321-.014-3.015-1.295-3.497-.22-.082-.978-.151-1.695-.151h-1.295v5.094Zm2.618-3.883c1.006.496 1.061 2.065.096 2.644-.248.165-.689.275-1.019.275h-.593v-3.166h.524c.275 0 .73.11.992.247ZM149.083 194.589h1.102v-5.094h-1.102v5.094ZM158.811 191.588c-.455 1.156-.909 2.312-1.006 2.546l-.179.455h.606c.579 0 .62-.028.772-.482l.165-.496 2.095.083.138.44c.11.427.165.455.744.455.523 0 .592-.028.523-.248-.055-.124-.51-1.267-1.006-2.547l-.923-2.299h-1.116l-.813 2.093Zm1.736.22c.138.358.248.688.248.743 0 .069-.275.11-.62.11-.344 0-.62-.027-.62-.069 0-.22.593-1.583.662-1.514.041.041.192.372.33.73ZM140.402 194.589h1.102v-5.094h-1.102v5.094Z" fill="#F6F9FA"/><path fill-rule="evenodd" clip-rule="evenodd" d="m37.013 99.98 28.016-16.366c.616 1.024 2.35 3.684 4.359 6.124 2.511 3.05 16.642 14.601 31.324 11.951 14.682-2.65 18.979-7.019 24.924-14.037 4.755-5.616 6.087-14.277 6.159-17.906V6.936c.16-6.002-5.115-6.033-7.43-4.768a1952.683 1952.683 0 0 0-15.857 9.212l-.004.002-.006.004-.008.005-.005.003-.005.003-.012.007-.008.004-.003.002-.009.005-.005.003-.002.002c-.562.329-.904.53-.969.566-.358.205-7.432 4.326-7.432 4.326V7.92c0-6.339-3.125-7.909-7.167-7.909-1.35 0-3.078-.002-5.043-.004-6.09-.008-14.445-.018-20.768.023-10.453.068-16.994 1.668-25.493 8.41-7.794 6.184-11.068 15.901-11.531 20.791v66.495c0 3.95 4.174 5.528 6.975 4.255Zm87.419-89.705-24.317 14.117v70.009c3.108-.262 10.751-2.05 16.459-7.108s8.002-13.148 8.436-16.561V11.077c-.015-.37-.151-1.05-.578-.802ZM69.57 29.311c-.494 3.657 0 18.285 0 18.285 3.715-.774 8.12-2.145 11.029-3.87 8.423-4.995 11.3-12.757 12.38-16.123 1.079-3.366.39-20.835.39-20.835-6.466.568-11.509 3.809-15.905 7.51-5.468 4.602-7.346 10.975-7.894 15.033Zm.001 24.277s-.494 14.628 0 18.285c.548 4.057 2.427 10.43 7.895 15.034 4.396 3.7 9.44 6.941 15.906 7.509 0 0 .688-17.47-.392-20.835-1.08-3.366-3.956-11.128-12.38-16.123-2.908-1.725-7.313-3.096-11.029-3.87Zm-6.975-46.89c4.692-.31 12.56-.204 12.56-.204l-4.453 4.238c-6.704 5.844-8.84 14.885-9.07 18.675V77.8L38.371 91.276c-.57.282-.833.435-.953.36-.102-.063-.102-.29-.102-.744V29.407c.207-2.136 1.726-7.724 6.138-12.985 4.412-5.262 11.194-9.198 19.141-9.723Z" fill="#F6F9FA"/></svg>