<svg width="150" height="55" fill="none" xmlns="http://www.w3.org/2000/svg"><path d="M91.062 7.528c-2.077.396-3.42 1.496-3.846 3.153-.154.587-.154 1.84-.007 2.412.352 1.35 1.365 2.266 3.156 2.845.323.11 1.16.345 1.85.521 1.695.447 2.209.719 2.377 1.283.184.609-.205 1.24-.976 1.584-.382.169-.565.213-1.05.213-.704 0-1.078-.095-1.548-.418-.418-.279-.675-.719-.741-1.283l-.044-.382h-3.377l.044.682c.074 1.276.55 2.31 1.432 3.146.616.58 1.1.865 1.96 1.151 1.922.638 4.33.367 5.878-.667.888-.594 1.498-1.481 1.755-2.56.161-.688.146-1.818-.037-2.478-.213-.762-.397-1.078-.947-1.627-.727-.726-1.835-1.247-3.604-1.68-2.297-.572-2.862-.894-2.862-1.65 0-.608.499-1.011 1.394-1.136 1.344-.19 2.422.506 2.422 1.554v.206h3.399l-.052-.536c-.132-1.378-.477-2.17-1.291-2.991-.411-.418-.69-.624-1.101-.822-.91-.432-1.285-.506-2.716-.528-.705-.014-1.365-.007-1.468.008ZM63.355 22.48l1.666.021 1.673.015.015-2.471.022-2.479 1.695-.044 1.388 2.479 1.394 2.478 1.901.022c1.505.015 1.886 0 1.857-.073-.015-.051-.727-1.305-1.578-2.786l-1.541-2.692.352-.227c.932-.594 1.754-1.774 2.011-2.86.161-.682.147-1.825-.03-2.522-.396-1.547-1.65-2.882-3.14-3.344-.838-.264-1.33-.293-4.551-.293h-3.171l.037 14.775Zm6.679-11.33c1.005.52 1.203 1.929.381 2.691-.491.455-.697.499-2.29.499h-1.394l-.022-1.709-.015-1.708 1.49.022c1.424.022 1.505.03 1.85.205ZM76.53 22.516h9.027V19.29h-5.651v-2.64h4.917v-3.153h-4.917V10.93h5.504V7.704h-8.88v14.812ZM100.016 22.516h9.028V19.29h-5.651v-2.64h4.917v-3.153h-4.917V10.93h5.431V7.704h-8.808v14.812ZM111.099 22.516l1.674-.015 1.666-.022.073-8.579 6.107 8.58 1.409.021 1.402.015V7.704h-3.303l-.014 4.224-.022 4.223-5.946-8.44-1.519-.007h-1.527v14.812ZM126.146 22.516h2.921c1.673 0 3.193-.037 3.574-.08 1.74-.213 3.369-1.013 4.456-2.178 2.025-2.193 2.525-5.705 1.196-8.5-1.042-2.199-2.914-3.57-5.395-3.944-.521-.08-1.453-.11-3.721-.11h-3.031v14.812Zm6.407-11.476c1.373.286 2.503 1.4 2.878 2.823.168.624.168 1.79.007 2.42-.352 1.386-1.285 2.405-2.569 2.801-.462.147-.683.169-1.916.169h-1.394l-.022-4.165-.015-4.158h1.263c.822 0 1.445.037 1.768.11ZM140.972 22.516H150V19.29h-5.652v-2.64h4.918v-3.153h-4.918V10.93h5.432V7.704h-8.808v14.812ZM67.832 24.642c-.705.074-1.086.191-1.659.485a3.438 3.438 0 0 0-1.52 1.561c-.234.484-.264.616-.293 1.306-.03.682-.015.82.169 1.378.11.345.382.924.594 1.29.22.367.397.69.397.72 0 .029-.17.175-.367.33-.918.696-1.644 1.752-1.872 2.69-.14.61-.14 1.746 0 2.303.396 1.532 1.593 2.677 3.17 3.006.588.125 2.012.14 2.636.03a7.388 7.388 0 0 0 1.967-.653l.521-.271.734.792 3.56-.044-2.312-2.691.389-.778c.205-.432.462-1.1.565-1.48.19-.749.352-2.054.264-2.15-.03-.029-.66-.043-1.402-.036l-1.35.022-.088.587c-.081.6-.316 1.43-.397 1.43-.051 0-1.82-2.149-1.85-2.252-.014-.044.28-.271.64-.52 1.335-.895 2.054-1.863 2.245-3.014.235-1.393-.492-2.867-1.74-3.542-.755-.403-1.959-.608-3.001-.498Zm1.453 2.736c.529.403.543 1.085.037 1.635-.301.322-1.123.91-1.277.91-.155 0-.712-1.21-.75-1.629-.058-.733.456-1.188 1.278-1.144.352.022.507.074.712.228Zm-.8 7.772c.631.756 1.13 1.408 1.116 1.438-.081.124-.984.322-1.512.33-.69.007-1.145-.154-1.498-.543-.389-.425-.447-1.093-.154-1.709.162-.344.77-1.033.844-.953.03.03.573.682 1.204 1.437ZM80.933 39.601h3.376l.015-4.29.022-4.296 6.092 8.58 1.417.006h1.409V24.79H89.96v4.231c0 3.293-.022 4.21-.088 4.143-.052-.051-1.395-1.943-3.002-4.216l-2.907-4.121-1.519-.022-1.512-.015v14.812ZM95.98 39.601h9.101v-3.226h-5.725v-2.64h4.917v-3.153h-4.917l.015-1.268.022-1.262 2.737-.022 2.731-.014-.015-1.599-.022-1.591-4.419-.022-4.425-.015v14.812ZM107.136 39.601h3.376V24.79h-3.376v14.812ZM111.709 24.877c.014.052 1.262 3.293 2.767 7.208 1.504 3.909 2.767 7.201 2.803 7.311l.074.205h1.563c1.417 0 1.564-.014 1.615-.132.411-1.056 5.395-14.555 5.395-14.607 0-.043-.705-.073-1.828-.073h-1.82l-1.674 4.913c-.917 2.699-1.688 4.913-1.717 4.913-.022 0-.514-1.35-1.086-2.992-.573-1.642-1.344-3.85-1.718-4.913l-.668-1.92h-1.871c-1.468 0-1.865.021-1.835.087ZM130.058 24.914c-.029.073-1.299 3.38-2.826 7.347-1.527 3.967-2.774 7.245-2.774 7.282 0 .03.8.058 1.783.058h1.776l.955-2.713h5.446l.455 1.269c.249.697.484 1.312.514 1.356.044.066.506.088 1.864.074l1.805-.022-5.857-14.74-1.548-.021c-1.424-.015-1.549-.007-1.593.11Zm2.459 6.68.8 2.215h-1.6c-.896 0-1.608-.03-1.608-.066 0-.052.558-1.643 1.483-4.21.044-.11.088-.198.103-.183.007.015.381 1.02.822 2.244ZM138.183 43.781c-.147.206-.147.22-.022.22.073-.007.249-.102.389-.22l.249-.22h-.227c-.176 0-.272.059-.389.22ZM73.924 44.14c-.646.294-.955.998-.742 1.709.184.63.712 1.012 1.402 1.012.602 0 1.042-.257 1.3-.77.278-.535.146-1.35-.287-1.738-.389-.352-1.152-.455-1.673-.213Zm1.255.697c.213.213.25.3.25.587 0 .278-.045.381-.243.601-.213.235-.279.264-.602.264-.323 0-.389-.03-.602-.264-.198-.22-.242-.323-.242-.601 0-.286.037-.374.25-.587.213-.213.3-.25.594-.25s.382.037.595.25ZM77.542 44.096c-.72.338-1.057 1.218-.727 1.922.257.557.698.843 1.292.843.58 0 .954-.235 1.219-.748.073-.154.14-.293.14-.315 0-.022-.148-.037-.331-.037-.184 0-.33.037-.33.073 0 .044-.081.162-.184.257-.227.235-.734.257-1.013.037-.271-.213-.381-.609-.279-.961.118-.381.39-.58.793-.58.286 0 .367.037.565.257.191.206.294.257.507.257.146 0 .271-.015.271-.037 0-.154-.337-.652-.558-.82-.212-.162-.36-.206-.719-.22-.25-.008-.536.021-.646.072ZM83.832 44.14c-.851.382-1.1 1.496-.499 2.208.39.469 1.109.645 1.659.41.227-.095.712-.572.712-.704 0-.029.022-.11.044-.176.037-.095-.007-.117-.228-.117-.212 0-.315.051-.506.257-.213.22-.294.256-.58.256-.271 0-.374-.036-.558-.227-.198-.19-.227-.279-.227-.616 0-.337.03-.425.227-.616.184-.19.287-.227.558-.227.286 0 .367.036.58.256.19.206.294.257.507.257.22 0 .264-.022.227-.117a.857.857 0 0 1-.044-.176c0-.132-.484-.609-.712-.704-.33-.14-.807-.125-1.16.036ZM96.941 44.082c-.565.227-.888.718-.888 1.349 0 .396.184.88.411 1.078.617.543 1.673.433 2.121-.213.272-.41.25-.535-.11-.535-.161 0-.293.03-.293.066 0 .03-.089.147-.191.257-.287.278-.749.27-1.072-.022-.22-.198-.242-.257-.242-.631s.022-.433.242-.63c.323-.294.785-.301 1.072-.023.102.11.19.228.19.257 0 .037.133.066.294.066.367 0 .39-.14.08-.565-.33-.454-1.078-.667-1.614-.454ZM100.317 44.082c-.572.227-.888.704-.888 1.349 0 .8.5 1.35 1.292 1.415 1.336.11 2.143-1.334 1.299-2.339a1.57 1.57 0 0 0-.499-.367c-.316-.146-.917-.175-1.204-.058Zm1.16.726a.871.871 0 0 1 0 1.239c-.55.55-1.461.161-1.461-.63 0-.28.037-.367.25-.58.22-.22.294-.25.616-.25.316 0 .404.037.595.22ZM106.798 44.104a.73.73 0 0 0-.469.711c0 .403.22.623.8.8.528.153.712.293.638.476-.11.293-.748.264-.829-.037-.03-.117-.103-.146-.367-.146-.323 0-.331.007-.279.198.073.322.249.542.514.652.535.22 1.291.052 1.482-.337.052-.103.096-.308.096-.455 0-.388-.235-.616-.837-.814-.573-.183-.756-.366-.528-.535.212-.154.396-.125.601.08a.594.594 0 0 0 .448.184c.257 0 .257-.007.213-.235-.059-.293-.169-.425-.462-.55a1.44 1.44 0 0 0-1.021.008ZM117.573 44.155c-.925.462-1.006 1.9-.147 2.464.962.638 2.334-.059 2.334-1.188 0-1.063-1.203-1.76-2.187-1.276Zm1.292.653c.367.366.374.88.007 1.239-.352.352-.895.337-1.248-.037-.139-.154-.176-.264-.176-.594 0-.359.022-.425.242-.616.191-.176.301-.212.595-.212.301 0 .396.036.58.22ZM144.73 44.155c-.925.462-1.006 1.9-.147 2.471.404.264 1.02.308 1.424.103.352-.176.507-.345.653-.697l.11-.271h-.33c-.183 0-.33.037-.33.073 0 .044-.088.162-.191.257-.235.22-.712.25-.969.066-.205-.14-.382-.477-.382-.726 0-.25.177-.587.382-.726.257-.183.734-.154.969.066.103.095.191.213.191.257 0 .036.147.073.33.073h.33l-.11-.271c-.146-.352-.301-.52-.638-.69-.367-.183-.896-.176-1.292.015ZM64.72 44.25c-.044.096-.272.69-.514 1.32-.25.624-.448 1.152-.448 1.174 0 .022.132.044.294.044.264 0 .3-.022.396-.257l.11-.257h1.08l.095.257c.088.242.11.257.418.257h.323l-.125-.316c-.066-.168-.316-.77-.543-1.334l-.426-1.027-.293-.022c-.265-.022-.309 0-.367.161Zm.565 1.071.154.44h-.72l.162-.44c.088-.242.184-.44.213-.44.022 0 .11.198.19.44ZM67.135 46.788h.733c.595 0 .8-.03 1.028-.147.932-.477.932-1.943 0-2.42-.228-.117-.433-.147-1.028-.147h-.733v2.714Zm1.629-1.914c.161.176.205.3.205.557 0 .257-.044.381-.205.557-.176.198-.272.242-.624.272l-.418.029v-1.716l.418.03c.352.029.448.073.624.27ZM71.069 46.75l.308.023c.169.015.308.007.308-.015 0-.014.228-.63.507-1.364l.506-1.327-.33.022-.338.022-.3.858c-.17.47-.324.873-.346.902-.03.022-.19-.367-.367-.858l-.323-.902-.345-.022-.337-.022 1.056 2.684ZM80.904 44.133c-.015.03-.264.638-.543 1.357l-.514 1.298h.323c.293 0 .323-.015.403-.257l.096-.257h1.079l.11.257c.095.235.132.257.426.257h.315l-1.1-2.714h-.28c-.154 0-.293.022-.315.06Zm.514 1.188.154.44h-.367c-.316 0-.353-.015-.309-.132.03-.066.103-.264.162-.44.059-.169.132-.308.154-.308.03 0 .117.198.206.44ZM86.511 46.788h.66v-2.714h-.66v2.714ZM88.39 45.336c-.279.696-.514 1.312-.535 1.356-.03.066.058.096.286.096.308 0 .337-.015.396-.242l.073-.235 1.116-.044.088.264c.08.242.103.257.411.257.176 0 .323-.022.316-.06 0-.028-.242-.63-.529-1.334l-.528-1.283-.602-.044-.492 1.269Zm1.087.256c.05.162.029.169-.28.169-.183 0-.337-.03-.337-.066 0-.037.073-.257.162-.484l.161-.418.117.323c.074.168.155.388.177.476ZM92.383 46.788h1.688v-.514h-1.1v-.586h.953v-.506l-.917-.044-.022-.279-.022-.271h1.108v-.514h-1.688v2.714ZM103.172 46.788h.58l.044-1.599.573.8c.543.747.594.799.829.799h.25v-2.714h-.58l-.044 1.562-.551-.777c-.528-.748-.557-.777-.822-.785h-.279v2.714ZM109.206 45.167c.022 1.049.029 1.107.205 1.29.301.323.565.426 1.006.39.455-.037.734-.213.917-.58.11-.198.132-.44.132-1.225v-.968h-.587v.88c0 .514-.037.954-.088 1.064-.139.315-.653.374-.881.095-.11-.125-.132-.3-.132-1.093v-.946h-.594l.022 1.093ZM112.347 46.788h1.688v-.514h-1.027v-2.2h-.661v2.714ZM114.182 44.588h.807v2.2h.588v-2.2h.734v-.514h-2.129v.514ZM120.568 46.788h.587v-.44c0-.433.007-.44.205-.44.169 0 .235.073.441.44.242.44.242.44.572.44h.33l-.124-.242c-.066-.125-.206-.36-.294-.506-.176-.272-.176-.279-.029-.352.337-.176.462-.77.257-1.174-.177-.344-.448-.44-1.248-.44h-.697v2.714Zm1.306-2.083c.345.242.103.616-.404.616h-.315v-.733h.279c.154 0 .352.051.44.117ZM123.504 46.788h.587v-2.714h-.587v2.714ZM125.434 45.05c-.213.528-.448 1.144-.529 1.349l-.154.389h.323c.308 0 .331-.015.411-.257l.088-.264 1.116.044.073.235c.059.227.088.242.397.242.279 0 .315-.022.279-.132-.03-.066-.272-.675-.544-1.357l-.491-1.225h-.587l-.382.976Zm.873.256c.074.191.132.367.132.396 0 .037-.146.059-.33.059-.183 0-.33-.015-.33-.037 0-.117.315-.843.352-.806.022.022.103.198.176.388ZM130.388 45.116c-.022 1.019-.029 1.048-.198 1.129-.25.125-.47.022-.558-.25-.059-.212-.095-.234-.345-.234-.257 0-.279.015-.279.198 0 .279.243.653.507.792.308.154.807.14 1.064-.03.367-.241.404-.388.411-1.569v-1.078h-.58l-.022 1.042ZM131.959 45.167c.022 1.049.029 1.107.205 1.29.301.323.566.426 1.006.39.455-.037.734-.213.917-.58.11-.198.132-.44.132-1.225v-.968h-.587v.88c0 .514-.036.954-.088 1.064-.139.315-.653.374-.881.095-.11-.125-.132-.3-.132-1.093v-.946h-.594l.022 1.093ZM135.1 46.788h.661v-.448c0-.44 0-.44.198-.418.154.015.25.118.44.44.243.418.257.426.58.426h.338l-.206-.352a8.336 8.336 0 0 0-.301-.499c-.088-.14-.08-.169.081-.271a.823.823 0 0 0 .264-.382c.125-.388.037-.718-.264-.982-.249-.22-.271-.228-1.02-.228h-.771v2.714Zm1.395-2.054c.176.176.176.213.029.426-.088.124-.183.161-.44.161h-.323v-.733h.293c.199 0 .345.051.441.146ZM139.357 46.788h.69c.984 0 1.314-.162 1.593-.77.323-.704-.007-1.606-.69-1.863-.117-.044-.521-.08-.903-.08h-.69v2.713Zm1.395-2.068c.536.264.565 1.1.051 1.408a1.111 1.111 0 0 1-.543.146h-.316v-1.686h.279c.147 0 .389.058.529.132ZM142.587 46.788h.587v-2.714h-.587v2.714ZM147.769 45.189c-.243.616-.485 1.232-.536 1.357l-.096.242h.323c.309 0 .331-.015.411-.257l.088-.264 1.116.044.073.235c.059.227.089.242.397.242.279 0 .315-.015.279-.132a71.93 71.93 0 0 1-.536-1.357l-.492-1.225h-.594l-.433 1.115Zm.924.117c.074.191.133.367.133.396 0 .037-.147.059-.331.059-.183 0-.33-.015-.33-.037 0-.117.316-.843.352-.806.022.022.103.198.176.388ZM137.963 46.788h.587v-2.714h-.587v2.714Z" fill="#F6F9FA"/><path fill-rule="evenodd" clip-rule="evenodd" d="m3.715 53.256 14.923-8.718A30.671 30.671 0 0 0 20.96 47.8c1.338 1.624 8.864 7.777 16.685 6.366 7.82-1.412 10.11-3.74 13.276-7.478 2.533-2.99 3.243-7.604 3.28-9.537V3.694c.086-3.197-2.724-3.213-3.957-2.54a1044.851 1044.851 0 0 0-8.446 4.908h-.002l-.004.003-.004.002-.003.002-.002.002-.007.003-.004.003h-.002l-.004.003-.003.002h-.001l-.516.303c-.19.108-3.959 2.304-3.959 2.304v-4.47c0-3.377-1.664-4.213-3.818-4.213L30.784.004C27.54 0 23.089-.006 19.72.016c-5.568.036-9.052.888-13.579 4.48C1.99 7.79.247 12.966 0 15.57v35.42c0 2.103 2.223 2.944 3.715 2.266ZM50.28 5.473l-12.953 7.52v37.29c1.656-.14 5.727-1.092 8.767-3.786 3.04-2.694 4.263-7.003 4.493-8.821V5.9c-.007-.197-.08-.559-.307-.427Zm-29.223 10.14c-.263 1.948 0 9.74 0 9.74 1.979-.413 4.326-1.143 5.875-2.062 4.487-2.66 6.019-6.795 6.594-8.588.575-1.793.208-11.098.208-11.098-3.444.302-6.13 2.029-8.472 4-2.913 2.452-3.913 5.846-4.205 8.008Zm0 12.93s-.262 7.793 0 9.741c.293 2.161 1.293 5.556 4.206 8.008 2.342 1.97 5.028 3.697 8.472 4 0 0 .367-9.306-.208-11.099-.575-1.792-2.108-5.927-6.594-8.588-1.55-.918-3.896-1.649-5.875-2.061ZM17.344 3.569c2.498-.165 6.69-.109 6.69-.109L21.66 5.716c-3.57 3.113-4.708 7.93-4.83 9.948V41.44L4.44 48.62c-.305.15-.444.232-.509.192-.054-.034-.054-.155-.054-.397v-32.75c.11-1.138.92-4.114 3.27-6.917s5.962-4.899 10.195-5.179Z" fill="#E08161"/></svg>