<svg width="29" height="28" viewBox="0 0 29 28" fill="none" xmlns="http://www.w3.org/2000/svg">
<path d="M25.8929 0H3.10714C2.28308 0 1.49276 0.316071 0.910061 0.87868C0.327359 1.44129 0 2.20435 0 3L0 25C0 25.7956 0.327359 26.5587 0.910061 27.1213C1.49276 27.6839 2.28308 28 3.10714 28H11.9916V18.4806H7.9135V14H11.9916V10.585C11.9916 6.70062 14.3867 4.555 18.0551 4.555C19.8119 4.555 21.649 4.8575 21.649 4.8575V8.67H19.6248C17.6304 8.67 17.0084 9.865 17.0084 11.0906V14H21.4606L20.7486 18.4806H17.0084V28H25.8929C26.7169 28 27.5072 27.6839 28.0899 27.1213C28.6726 26.5587 29 25.7956 29 25V3C29 2.20435 28.6726 1.44129 28.0899 0.87868C27.5072 0.316071 26.7169 0 25.8929 0V0Z" fill="#F6F9FA"/>
</svg>
