<svg width="29" height="28" viewBox="0 0 29 28" fill="none" xmlns="http://www.w3.org/2000/svg">
<path d="M26.9286 0H2.06496C0.92567 0 0 0.90625 0 2.01875V25.9813C0 27.0938 0.92567 28 2.06496 28H26.9286C28.0679 28 29 27.0938 29 25.9813V2.01875C29 0.90625 28.0679 0 26.9286 0ZM8.76473 24H4.46652V10.6375H8.77121V24H8.76473ZM6.61562 8.8125C5.23683 8.8125 4.12344 7.73125 4.12344 6.40625C4.12344 5.08125 5.23683 4 6.61562 4C7.98795 4 9.10781 5.08125 9.10781 6.40625C9.10781 7.7375 7.99442 8.8125 6.61562 8.8125V8.8125ZM24.8766 24H20.5783V17.5C20.5783 15.95 20.546 13.9563 18.3451 13.9563C16.1054 13.9563 15.7623 15.6438 15.7623 17.3875V24H11.4641V10.6375H15.5875V12.4625H15.6458C16.2219 11.4125 17.6266 10.3062 19.7174 10.3062C24.0674 10.3062 24.8766 13.075 24.8766 16.675V24V24Z" fill="#F6F9FA"/>
</svg>
