<svg width="24" height="28" viewBox="0 0 24 28" fill="none" xmlns="http://www.w3.org/2000/svg">
<path d="M20.4054 5.20173C18.1607 2.95173 15.1714 1.71423 11.9946 1.71423C5.4375 1.71423 0.101786 7.04995 0.101786 13.6071C0.101786 15.7017 0.648214 17.7482 1.6875 19.5535L0 25.7142L6.30536 24.0589C8.04107 25.0071 9.99643 25.5053 11.9893 25.5053H11.9946C18.5464 25.5053 24 20.1696 24 13.6124C24 10.4357 22.65 7.45173 20.4054 5.20173ZM11.9946 23.5017C10.2161 23.5017 8.475 23.0249 6.95893 22.1249L6.6 21.9107L2.86071 22.891L3.85714 19.2428L3.62143 18.8678C2.63036 17.2928 2.11071 15.4767 2.11071 13.6071C2.11071 8.15888 6.54643 3.72316 12 3.72316C14.6411 3.72316 17.1214 4.75173 18.9857 6.62138C20.85 8.49102 21.9964 10.9714 21.9911 13.6124C21.9911 19.066 17.4429 23.5017 11.9946 23.5017ZM17.4161 16.0982C17.1214 15.9482 15.6589 15.2303 15.3857 15.1339C15.1125 15.0321 14.9143 14.9839 14.7161 15.2839C14.5179 15.5839 13.95 16.2482 13.7732 16.4517C13.6018 16.6499 13.425 16.6767 13.1304 16.5267C11.3839 15.6535 10.2375 14.9678 9.08571 12.991C8.78036 12.466 9.39107 12.5035 9.95893 11.3678C10.0554 11.1696 10.0071 10.9982 9.93214 10.8482C9.85714 10.6982 9.2625 9.23566 9.01607 8.64102C8.775 8.06245 8.52857 8.14281 8.34643 8.13209C8.175 8.12138 7.97679 8.12138 7.77857 8.12138C7.58036 8.12138 7.25893 8.19638 6.98571 8.49102C6.7125 8.79102 5.94643 9.50888 5.94643 10.9714C5.94643 12.4339 7.0125 13.8482 7.15714 14.0464C7.30714 14.2446 9.25179 17.2446 12.2357 18.5357C14.1214 19.3499 14.8607 19.4196 15.8036 19.2803C16.3768 19.1946 17.5607 18.5624 17.8071 17.866C18.0536 17.1696 18.0536 16.5749 17.9786 16.4517C17.9089 16.3178 17.7107 16.2428 17.4161 16.0982Z" fill="#F6F9FA"/>
</svg>
