<svg width="15" height="18" viewBox="0 0 15 18" fill="none" xmlns="http://www.w3.org/2000/svg">
<path d="M12.7533 3.8512C11.3504 2.44495 9.48214 1.67151 7.49665 1.67151C3.39844 1.67151 0.0636161 5.00633 0.0636161 9.10454C0.0636161 10.4137 0.405134 11.6927 1.05469 12.8211L0 16.6715L3.94085 15.6369C5.02567 16.2295 6.24777 16.5409 7.4933 16.5409H7.49665C11.5915 16.5409 15 13.2061 15 9.10789C15 7.1224 14.1562 5.25745 12.7533 3.8512ZM7.49665 15.2887C6.38504 15.2887 5.29687 14.9907 4.34933 14.4282L4.125 14.2943L1.78795 14.907L2.41071 12.6269L2.26339 12.3925C1.64397 11.4081 1.3192 10.2731 1.3192 9.10454C1.3192 5.69941 4.09152 2.92709 7.5 2.92709C9.15067 2.92709 10.7009 3.56995 11.8661 4.73847C13.0312 5.907 13.7478 7.45722 13.7444 9.10789C13.7444 12.5164 10.9018 15.2887 7.49665 15.2887ZM10.885 10.6615C10.7009 10.5677 9.78683 10.1191 9.61607 10.0588C9.44531 9.99517 9.32143 9.96503 9.19755 10.1525C9.07366 10.34 8.71875 10.7552 8.60826 10.8824C8.50112 11.0063 8.39062 11.0231 8.20647 10.9293C7.11496 10.3836 6.39844 9.95499 5.67857 8.7195C5.48772 8.39137 5.86942 8.41481 6.22433 7.70499C6.2846 7.58111 6.25446 7.47396 6.20759 7.38021C6.16071 7.28646 5.78906 6.3724 5.63504 6.00075C5.48438 5.63914 5.33036 5.68937 5.21652 5.68267C5.10938 5.67597 4.98549 5.67597 4.86161 5.67597C4.73772 5.67597 4.53683 5.72285 4.36607 5.907C4.19531 6.0945 3.71652 6.54316 3.71652 7.45722C3.71652 8.37129 4.38281 9.25521 4.47321 9.3791C4.56696 9.50298 5.78237 11.378 7.64732 12.1849C8.82589 12.6938 9.28795 12.7374 9.87723 12.6503C10.2355 12.5967 10.9754 12.2016 11.1295 11.7664C11.2835 11.3311 11.2835 10.9595 11.2366 10.8824C11.1931 10.7987 11.0692 10.7519 10.885 10.6615Z" fill="#2A5A69"/>
</svg>
